<svg width="157" height="51" viewBox="0 0 157 51" fill="none" xmlns="http://www.w3.org/2000/svg"><path d="M60.26 44.489c-5.813-3.734-13.702-4.389-26.425-.87-13.563 3.178-18.085 5.215-24.024 1.126-2.282-2.009-3.1-5.243-2.489-9.902 1.417-7.595 5.246-14.904 12.046-23.011 3.796-4.218 7.317-7.837 11.966-9.29 3.564-.912 3.23 1.88 2.8 2.28-.455 0-1.22.07-1.81.455-.48.37-1.796 1.568-1.866 3.178-.102 2.465 2.456 1.952 3.56.598 1.19-1.525 2.947-4.445 1.564-7.167-.58-.969-1.58-1.638-2.824-1.866C28.5-.223 24.535 1.8 20.876 4.038 12.873 9.58 6.472 17.26 2.85 25.668.761 30.74-1.128 38.004 1.703 43.918c2.19 4.103 6.737 6.283 12.162 5.827 3.804-.398 8.405-1.624 11.499-2.364 3.094-.742 18.933-6.17 24.137 3.277 0 0 1.73-3.349 6.055-3.42 3.556-.328 8.685 1.026 12.42 3.761-1.244-1.866-4.772-4.616-7.716-6.511z" fill="#E61D2A"/><path d="M35.45 12.785c-2.962-1.938-8.916 1.767-13.684 8.121-4.361 5.7-6.244 12.325-4.195 15.389 3.048 3.604 8.707-1.64 11.114-4.446l.31-.328c1.637-1.752 2.902-3.861 4.125-5.884 0 0 1.125-1.853 1.179-1.939a26.585 26.585 0 0 0 2.476-.598c-.013.043-3.61 6.07-3.243 9.062.114.913.027 4.246 3.292 5.258 4.351.727 7.826-2.636 10.892-5.628 0 0 .522-.498.817-.783l-.172.697c-1.274 4.417.444 5.344 1.518 5.686 3.246.94 7.125-3.762 7.137-3.762-.1 1.481-.395 2.707 1.172 3.69 1.478.528 2.974-.277 4.11-1.032 4.097-2.878 7.397-7.382 10.062-11.276h-1.7c-.02 0-4.195 6.033-6.906 7.344-.005 0-.498.253-.782.053-.352-.3-.213-.922.004-1.363.014-.028 10.468-18.105 10.468-18.105h-4.936s-.54.87-.583.927c-.034-.029-.113-.178-.168-.25-3.058-4.217-9.983 2.27-15.196 9.793-2.008 2.892-4.563 6.15-7.213 8.5 0 0-3.926 3.588-5.603 1.01-.613-1.083-.425-2.666-.079-3.706 1.953-5.543 5.318-10.573 9.148-13.608 1.08-.84 2.256-1.083 2.839-.727.555.328.645 1.14.294 1.696-.892-.029-1.607.241-2.188.84-1.144 1.197-1.542 2.351-1.178 3.434 1.767 2.508 5.292-2.45 5.122-5.471-.06-1.083-.64-2.11-1.505-2.608-1.29-.77-3.256-.57-4.529.043-1.703.64-4.4 2.878-5.974 4.616-1.982 2.18-5.38 4.603-6.443 4.331.348-.926 3.219-6.782.199-8.976zm23.797 8.663c.96-1.325 3.755-4.873 4.437-5.471 2.291-2.01 3.207-1.126 3.286-.5a450.302 450.302 0 0 1-7.035 12.127c.005-.015-.743 1.125-.743 1.125-1.048 1.596-2.103 2.963-3.825 3.918-.245.072-.65.1-.919-.1-.324-.214-.452-.57-.416-.94.104-1.226 1.355-4.972 5.216-10.16zm-26.851 2.294s-.043.128-.064.17c-.006 0-2.152 3.49-2.152 3.49-1.296 1.725-2.913 3.892-4.935 4.931-.6.2-1.428.328-1.85-.198-.895-1.07-.434-2.551-.059-3.748l.133-.428c1.074-2.906 2.779-5.471 4.438-7.85a.219.219 0 0 1 .084-.029c.004.014.01.014.014.043 1.04 1.994 2.993 2.92 4.453 3.348.009 0 .018.014.018.043 0 .043-.023.1-.08.228zm2.034-4.118c-.01.029-.956 2.194-.956 2.194-.137.114-.354.057-.602 0l-.425-.071c-1.334-.413-2.34-1.297-2.65-2.35-.429-2.053 1.33-3.663 2.104-4.247.743-.513 1.899-.784 2.57-.256.413.484.57 1.11.57 1.795 0 .926-.286 1.966-.611 2.935zm62.4 6.616c-.477-1.025-1.606-1.68-2.81-1.61-3.91.357-7.735 3.563-9.743 8.164-1.054 2.366-1.629 4.318-2.006 7.424 1.216-1.396 3.696-3.69 6.51-4.944 0 0 .383-2.978 2.336-5.628.739-1.098 2.218-2.864 3.878-2.394 1.45.485.94 4.488-.987 8.363-1.427 2.85-3.61 5.7-5.82 7.666-1.952 1.653-4.842 3.648-7.37 2.11-1.592-.94-2.404-2.907-2.233-5.444.761-7.195 4.047-13.322 8.748-20.303 4.847-6.483 10.19-13.137 17.389-16.686 1.469-.74 2.828-.912 4.004-.456 0 0-6.758 3.705-9.979 10.559-.82 1.738-1.959 4.089-.811 6.17.6 1.082 1.664 1.167 2.522 1.11 3.948-.912 6.499-4.588 8.583-7.95 1.208-2.55 2.283-5.087 2.283-7.908 0-.342-.018-.798-.047-1.14 1.886-.997 5.754.77 5.754.77 3.023.997 9.459 5.913 11.63 6.853 1.059-1.225 2.799-3.077 3.779-4.003l-1.418-.87c-2.271-1.382-4.672-2.693-7.035-3.99-5.366-2.92-9.734-1.894-11.957-1.096-.873.313-1.672.584-1.672.584-1.649-1.795-4.355-1.625-6.349-1.14-7.169 2.052-13.825 7.053-20.962 15.73-5.246 6.797-8.5 12.667-10.236 18.466-1.337 3.904-1.743 9.646 1.52 13.052 2.775 2.891 6.454 2.265 9.052 1.225 5.63-2.764 10.69-8.72 13.21-15.574.608-2.037 1.284-4.915.236-7.11zm12.943-21.472c-.745 8.52-7.388 13.523-9.032 13.92-.996.2-2.695-.241-1.178-3.817 2.235-4.817 6.049-8.906 10.143-11 .099.356.097.583.067.897zm39.41 1.082c-3.573 2.024-7.277 3.334-11.762 2.879a68.824 68.824 0 0 0-3.567 4.317c6.293 1.596 12.965-1.952 16.686-5.329 3.937-3.405 5.955-7.694 5.955-7.694s-2.95 3.363-7.312 5.827zm-70.18 11.379l2.645-4.284H76.96l-2.644 4.284h4.687z" fill="#E61D2A"/><path d="M137.4 44.886c-.504.342-1.212.079-.947-.704.659-1.995 3.281-6.06 3.281-6.06l7.302-12.913h-5.002c-.238.389-.746 1.283-.746 1.283-.231-.384-.923-1.239-1.208-1.423-1.222-.77-3.015-.406-4.252.292-5.378 3.135-9.302 9.329-12.396 14.16 0 0-3.258 5.369-5.066 5.768-1.411.114-1.266-1.782-1.205-2.223.546-3.193 1.814-6.227 3.091-8.977a69.162 69.162 0 0 0 8.255-6.725c5.847-5.572 10.775-11.884 11.495-13.295 0 0-.779.157-1.7.186-4.498 6.255-13.701 15.346-16.492 16.699 1.236-2.964 9.223-17.113 16.019-23.88l1.069-1.027c1.654-1.61 3.368-3.263 4.703-3.533.141-.015.322 0 .479.328.06 1.254-.408 2.18-.945 3.234l-.753 1.54s1.066-.2 1.766-.429c.813-1.524 1.712-3.234 1.381-5.271-.111-.656-.587-1.154-1.209-1.268-2.027-.385-4.237 1.11-6.015 2.322l-.072.042c-9.139 7.139-16.856 17.426-23.603 31.475-.489.37-2.378.813-2.7.599.667-1.368 1.506-3.206 1.925-5.201.073-.57.141-1.154.141-1.724 0-1.226-.296-2.38-1.398-3.178-1.291-.641-2.888-.342-3.965.143-4.823 1.994-8.427 6.925-11.028 10.985-1.4 2.58-2.794 5.343-3.18 8.506-.272 2.48.281 4.075 1.695 4.873 1.454.74 3.283-.029 4.002-.4 4.886-2.564 8.3-7.707 10.991-12.41.107-.014 1.577-.056 2.688-.341.015 0 .021 0 .046.015-.064.212-.638 1.923-.638 1.923-1.706 4.986-2.495 8.378-.884 10.387 2.302 2.835 6.114-.1 9.214-3.976-.665 4.645 1.749 5.372 3.59 5.016 2.114-.57 4.47-2.822 5.563-3.975-.351 1.353-.255 3.776 1.668 4.018 1.318.243 2.305-.472 3.446-1.085 4.095-2.223 8.997-9.63 10.269-11.772h-1.668c-1.809 2.726-4.111 6.3-7.007 7.996zm-36.755-.496c-.26-.385-.346-.806-.354-1.26-.05-2.794 2.965-7.797 5.093-10.523h.004c.892 1.947 2.912 3.198 4.131 3.726-1.514 3.363-6.707 10.565-8.874 8.057zm9.729-9.56c-.145.1-2.691-.756-3.183-3.107-.418-2.024.98-3.605 2.332-4.402.581-.457 1.455-.613 2.097-.386.595.4.757 1.113.757 1.88 0 .472-.063.956-.118 1.397l-.013.1a18.936 18.936 0 0 1-1.872 4.517zm20.425 8.662c-.002 0-.483.428-.483.428-.687.612-1.394 1.268-2.248.94-.235-.086-.401-.399-.441-.642-.039-1.752.753-3.376 1.52-4.958l.197-.413c2.208-3.676 4.775-8.008 8.545-11.014.635-.457 1.324-.84 2.052-.541.167.156.362.427.362.698 0 .086-.076.313-.12.384-1.053 1.697-2.056 3.477-3.031 5.187-1.905 3.377-3.882 6.867-6.353 9.931z" fill="#E61D2A"/></svg>