<svg width="966" height="400" viewBox="0 0 966 400" fill="none" xmlns="http://www.w3.org/2000/svg"><mask id="a" style="mask-type:alpha" maskUnits="userSpaceOnUse" x="0" y="0" width="966" height="400"><path transform="matrix(-1 0 0 1 966 0)" fill="#D9D9D9" d="M0 0h966v400H0z"/></mask><g mask="url(#a)"><path d="M639.782 83.173c10.49-55.032 63.54-91.153 118.491-80.678 54.95 10.475 90.992 63.578 80.502 118.61-10.49 55.032-63.54 91.153-118.491 80.678-54.95-10.474-90.992-63.578-80.502-118.61z" fill="#53C4BE"/><path d="M358.438 253.374c3.735-19.593 22.464-32.484 41.832-28.792 19.368 3.692 32.042 22.569 28.307 42.162-3.735 19.594-22.464 32.484-41.832 28.792-19.369-3.692-32.042-22.568-28.307-42.162z" fill="#7939CC"/><path d="M2.283 303.647c5.127-26.899 31.089-44.548 57.987-39.42 26.898 5.127 44.547 31.089 39.42 57.987-5.128 26.899-31.09 44.547-57.988 39.42-26.898-5.127-44.547-31.089-39.42-57.987z" fill="#F8B21F"/></g></svg>