<svg width="20" height="26" viewBox="0 0 20 26" fill="none" xmlns="http://www.w3.org/2000/svg"><path fill-rule="evenodd" clip-rule="evenodd" d="M13.75 23a1.25 1.25 0 1 1 0 2.5h-7.5a1.25 1.25 0 1 1 0-2.5h7.5zM10 .5c5.89 0 10 3.551 10 9.223 0 2.314-.855 4.23-2.484 6.339l-.295.374c-.262.324-1.255 1.49-1.59 1.904l-.19.244c-.263.353-.4.596-.436.724l-.03.195a1.25 1.25 0 0 1-1.225.997h-7.5a1.25 1.25 0 0 1-1.224-.997l-.03-.195c-.037-.128-.174-.37-.437-.724l-.19-.244-1.59-1.904-.295-.375C.854 13.953 0 12.037 0 9.723 0 4.052 4.11.5 10 .5zM10 3C5.415 3 2.5 5.52 2.5 9.723c0 1.652.64 3.096 1.954 4.8l.271.344c.211.26 1.074 1.275 1.501 1.795l.183.226c.316.404.562.765.74 1.112h5.702l.115-.21a8.22 8.22 0 0 1 .625-.902l.715-.864c.398-.474.828-.983.969-1.157l.271-.345C16.86 12.82 17.5 11.376 17.5 9.723 17.5 5.52 14.585 3 10 3z" fill="#0082FB"/></svg>