<svg width="25" height="26" viewBox="0 0 25 26" fill="none" xmlns="http://www.w3.org/2000/svg"><path fill-rule="evenodd" clip-rule="evenodd" d="M13.384.866l-.118-.104-.127-.087a1.25 1.25 0 0 0-1.523.191L8.23 4.25H5l-.146.008A1.25 1.25 0 0 0 3.75 5.5v3.23L.366 12.116l-.104.118a1.25 1.25 0 0 0 .104 1.65l3.384 3.385V20.5l.008.146A1.25 1.25 0 0 0 5 21.75h3.231l3.385 3.384.118.104c.49.381 1.2.346 1.65-.104l3.383-3.384H20l.146-.008A1.25 1.25 0 0 0 21.25 20.5v-3.233l3.384-3.383.104-.118a1.25 1.25 0 0 0-.104-1.65L21.25 8.731V5.5l-.008-.146A1.25 1.25 0 0 0 20 4.25h-3.231L13.384.866zM5.05 13a7.5 7.5 0 1 1 15 .102 7.5 7.5 0 0 1-15-.102z" fill="#0082FB"/><path fill-rule="evenodd" clip-rule="evenodd" d="M14.97 10.22L11 14.19l-.97-.97a.75.75 0 1 0-1.06 1.06l1.5 1.5a.75.75 0 0 0 1.06 0l4.5-4.5a.75.75 0 1 0-1.06-1.06z" fill="#0082FB"/></svg>