<svg width="25" height="25" viewBox="0 0 25 25" fill="none" xmlns="http://www.w3.org/2000/svg"><path fill-rule="evenodd" clip-rule="evenodd" d="M11.25 0A3.75 3.75 0 0 1 15 3.75v1.463A3.744 3.744 0 0 1 16.25 5h5A3.75 3.75 0 0 1 25 8.75v12.5A3.75 3.75 0 0 1 21.25 25H3.75A3.75 3.75 0 0 1 0 21.25V3.75A3.75 3.75 0 0 1 3.75 0h7.5zm0 2.5h-7.5c-.69 0-1.25.56-1.25 1.25v17.5c0 .69.56 1.25 1.25 1.25h8.75V3.75c0-.69-.56-1.25-1.25-1.25zm10 5h-5c-.69 0-1.25.56-1.25 1.25V22.5h6.25c.69 0 1.25-.56 1.25-1.25V8.75c0-.69-.56-1.25-1.25-1.25zM8.75 15a1.25 1.25 0 1 1 0 2.5h-2.5a1.25 1.25 0 1 1 0-2.5h2.5zM20 15a1.25 1.25 0 1 1 0 2.5h-2.5a1.25 1.25 0 1 1 0-2.5H20zM8.75 10a1.25 1.25 0 1 1 0 2.5h-2.5a1.25 1.25 0 1 1 0-2.5h2.5zM20 10a1.25 1.25 0 1 1 0 2.5h-2.5a1.25 1.25 0 1 1 0-2.5H20zM8.75 5a1.25 1.25 0 1 1 0 2.5h-2.5a1.25 1.25 0 1 1 0-2.5h2.5z" fill="#0F0F0F"/></svg>