<svg width="25" height="22" viewBox="0 0 25 22" fill="none" xmlns="http://www.w3.org/2000/svg"><path fill-rule="evenodd" clip-rule="evenodd" d="M14.705 0c1.42 0 2.719.785 3.354 2.027l1.118 2.186c.212.414.645.676 1.118.676h.955c2.071 0 3.75 1.642 3.75 3.667v9.777C25 20.358 23.321 22 21.25 22H3.75C1.679 22 0 20.358 0 18.333V8.556C0 6.53 1.679 4.889 3.75 4.889h.955c.473 0 .906-.262 1.118-.676L6.94 2.027A3.763 3.763 0 0 1 10.295 0h4.41zm0 2.444h-4.41c-.473 0-.906.262-1.118.676L8.059 5.306C7.424 6.55 6.125 7.333 4.705 7.333H3.75c-.69 0-1.25.548-1.25 1.223v9.777c0 .675.56 1.223 1.25 1.223h17.5c.69 0 1.25-.548 1.25-1.223V8.556c0-.675-.56-1.223-1.25-1.223h-.955c-1.42 0-2.719-.784-3.354-2.027L15.823 3.12a1.253 1.253 0 0 0-1.118-.676zM12.5 7.334c2.761 0 5 2.188 5 4.888 0 2.7-2.239 4.89-5 4.89s-5-2.19-5-4.89c0-2.7 2.239-4.889 5-4.889zm0 2.444c-1.38 0-2.5 1.094-2.5 2.444 0 1.35 1.12 2.445 2.5 2.445s2.5-1.095 2.5-2.445c0-1.35-1.12-2.444-2.5-2.444z" fill="#0F0F0F"/></svg>