<svg width="20" height="20" viewBox="0 0 20 20" fill="none" xmlns="http://www.w3.org/2000/svg"><path fill-rule="evenodd" clip-rule="evenodd" d="M6.5 17a1.5 1.5 0 1 1 0 3 1.5 1.5 0 0 1 0-3zm9 0a1.5 1.5 0 1 1 0 3 1.5 1.5 0 0 1 0-3zM1 0h2a1 1 0 0 1 .965.738l.023.11L4.473 4H19a1 1 0 0 1 .995 1.1l-.019.117-1.652 7.434a3 3 0 0 1-2.746 2.344l-.182.005h-8.68a3 3 0 0 1-2.933-2.37l-.032-.174L2.142 2H1A1 1 0 0 1 .883.007L1 0zm16.753 6H4.781l.946 6.152a1 1 0 0 0 .876.842l.113.006h8.68a1 1 0 0 0 .944-.671l.032-.112L17.753 6z" fill="#000"/></svg>