<svg width="21" height="20" viewBox="0 0 21 20" fill="none" xmlns="http://www.w3.org/2000/svg"><path fill-rule="evenodd" clip-rule="evenodd" d="M15 0a1 1 0 0 1 1 1v1h1a3 3 0 0 1 3 3v2a1 1 0 1 1-2 0V5a1 1 0 0 0-1-1h-1v1a1 1 0 1 1-2 0V4H6v1a1 1 0 0 1-2 0V4H3a1 1 0 0 0-1 1v3h5a1 1 0 0 1 0 2H2v7a1 1 0 0 0 1 1h4a1 1 0 1 1 0 2H3a3 3 0 0 1-3-3V5a3 3 0 0 1 3-3h1V1a1 1 0 0 1 2 0v1h8V1a1 1 0 0 1 1-1zm-3.045 17.16a.625.625 0 0 1 .828-.063l.055.047.1.098a3.75 3.75 0 0 0 5.446-.348l-.235-.001a.625.625 0 0 1 0-1.25h1.768c.345 0 .625.28.625.625v1.768a.625.625 0 1 1-1.25 0v-.28a5.002 5.002 0 0 1-7.098.498l-.116-.106-.108-.105a.625.625 0 0 1-.015-.884z" fill="#000"/><path fill-rule="evenodd" clip-rule="evenodd" d="M11.078 10.34c.319 0 .581.238.62.546l.005.079-.001.28a5 5 0 0 1 7.33-.28.625.625 0 1 1-.883.884 3.75 3.75 0 0 0-5.538.257l.235.002a.625.625 0 0 1 .078 1.245l-.078.005h-1.768a.625.625 0 0 1-.62-.547l-.005-.079v-1.767c0-.345.28-.625.625-.625z" fill="#000"/></svg>