<svg width="26" height="16" viewBox="0 0 26 16" fill="none" xmlns="http://www.w3.org/2000/svg"><path d="M2.516 15.238l.118-.104L10.5 7.269l4.116 4.115c.45.45 1.16.485 1.65.104l.118-.104 5.366-5.365 1.616 1.615c.753.753 2.018.276 2.127-.742l.007-.142-.002-5.074-.011-.11-.032-.148-.03-.095-.042-.102-.066-.122-.083-.12-.1-.113a1.268 1.268 0 0 0-.14-.12l-.139-.09-.14-.067-.133-.044-.146-.031-.074-.009L24.25.5h-5c-1.065 0-1.622 1.232-.979 2.028l.095.106 1.615 1.616L15.5 8.731l-4.116-4.115a1.25 1.25 0 0 0-1.65-.104l-.118.104-8.75 8.75a1.25 1.25 0 0 0 1.65 1.872z" fill="#0082FB"/></svg>