<svg width="20" height="20" viewBox="0 0 20 20" fill="none" xmlns="http://www.w3.org/2000/svg"><path fill-rule="evenodd" clip-rule="evenodd" d="M10 0c5.523 0 10 4.477 10 10s-4.477 10-10 10S0 15.523 0 10 4.477 0 10 0zm2.972 11H7.028c.11 2.004.551 3.828 1.225 5.177C8.881 17.432 9.553 18 10 18c.448 0 1.119-.568 1.747-1.823.674-1.349 1.114-3.173 1.225-5.176zm4.966.001h-2.963c-.12 2.434-.678 4.611-1.513 6.214a8.01 8.01 0 0 0 4.476-6.214zm-12.913 0H2.062a8.007 8.007 0 0 0 4.477 6.214c-.784-1.503-1.322-3.51-1.486-5.76L5.025 11zm1.513-8.216l-.026.013A8.007 8.007 0 0 0 2.062 9h2.963c.12-2.435.678-4.612 1.513-6.215zM10 2l-.081.006c-.446.063-1.075.635-1.666 1.817C7.58 5.172 7.138 6.996 7.027 9h5.946c-.111-2.004-.552-3.828-1.226-5.177C11.119 2.568 10.447 2 10 2zm3.461.786l.023.041c.823 1.6 1.372 3.76 1.491 6.173h2.963a8.007 8.007 0 0 0-4.477-6.214z" fill="#000"/></svg>