<svg width="25" height="25" viewBox="0 0 25 25" fill="none" xmlns="http://www.w3.org/2000/svg"><path fill-rule="evenodd" clip-rule="evenodd" d="M12.5 0C19.404 0 25 5.596 25 12.5S19.404 25 12.5 25 0 19.404 0 12.5 5.596 0 12.5 0zm3.716 13.751H8.784c.14 2.504.69 4.784 1.533 6.47C11.1 21.79 11.94 22.5 12.5 22.5c.56 0 1.399-.71 2.183-2.28.843-1.685 1.394-3.965 1.533-6.469zm6.206 0H18.72c-.151 3.043-.848 5.764-1.892 7.768a10.012 10.012 0 0 0 5.595-7.768zm-16.141 0H2.578a10.009 10.009 0 0 0 5.595 7.767c-.979-1.878-1.652-4.387-1.857-7.2l-.035-.566zm1.892-10.27l-.033.017a10.009 10.009 0 0 0-5.563 7.752h3.704c.151-3.043.848-5.765 1.892-7.77zM12.5 2.5l-.102.007c-.556.08-1.343.795-2.081 2.272-.843 1.686-1.394 3.966-1.533 6.471h7.432c-.139-2.505-.69-4.785-1.533-6.47C13.9 3.21 13.06 2.5 12.5 2.5zm4.327.982l.028.052c1.029 2 1.715 4.7 1.864 7.717l3.704-.001a10.009 10.009 0 0 0-5.596-7.768z" fill="#0082FB"/></svg>