<svg width="25" height="20" viewBox="0 0 25 20" fill="none" xmlns="http://www.w3.org/2000/svg"><path fill-rule="evenodd" clip-rule="evenodd" d="M6.25 12.5H7.5a6.24 6.24 0 0 1 5 2.5 6.239 6.239 0 0 1 4.68-2.492l.32-.008h1.25A6.25 6.25 0 0 1 25 18.75a1.25 1.25 0 0 1-2.492.146l-.014-.366a3.75 3.75 0 0 0-3.524-3.524L18.75 15H17.5a3.75 3.75 0 0 0-3.75 3.75 1.25 1.25 0 0 1-1.104 1.242L12.5 20a1.25 1.25 0 0 1-1.242-1.104l-.014-.366a3.75 3.75 0 0 0-3.524-3.524L7.5 15H6.25a3.75 3.75 0 0 0-3.75 3.75 1.25 1.25 0 1 1-2.5 0 6.25 6.25 0 0 1 5.979-6.244l.271-.006zm0-12.5a5 5 0 1 1 0 10 5 5 0 0 1 0-10zm12.5 0a5 5 0 1 1 0 10 5 5 0 0 1 0-10zM6.25 2.5a2.5 2.5 0 1 0 0 5 2.5 2.5 0 0 0 0-5zm12.5 0a2.5 2.5 0 1 0 0 5 2.5 2.5 0 0 0 0-5z" fill="#0082FB"/></svg>