<svg width="714" height="492" viewBox="0 0 714 492" fill="none" xmlns="http://www.w3.org/2000/svg"><mask id="a" style="mask-type:alpha" maskUnits="userSpaceOnUse" x="0" y="0" width="714" height="492"><path fill="#896A6A" d="M0 0h714v492H0z"/></mask><g mask="url(#a)"><path d="M355.024 59.813a210.693 210.693 0 0 0-167.297 85.421 210.701 210.701 0 0 0-32.641 184.985l51.479-15.215a157.009 157.009 0 0 1 24.325-137.855 157.008 157.008 0 0 1 124.674-63.658l-.54-53.678z" fill="url(#b)"/><path d="M150.355 310.878a210.697 210.697 0 1 0 203.06-251.042l.951 53.672a157.01 157.01 0 0 1 143.88 88.103 157.013 157.013 0 0 1-19.018 167.636 157.015 157.015 0 0 1-276.187-68.657l-52.686 10.288z" fill="url(#c)"/><path d="M387.583 87.574l-33.38 24.151-.896-49.96 34.276 25.81z" fill="#FFED8A" stroke="#FFED8A" stroke-width="2"/><path d="M171.025 272.663l30.219 28.074-49.357 9.203 19.138-37.277z" fill="#EA55EF" stroke="#EA55EF" stroke-width="2"/><path d="M48.824 125.528h4.102c1.82 0 3.22 1.078 3.22 3.178 0 2.086-1.4 3.164-3.22 3.164h-2.814V136h-1.288v-10.472zm1.274 1.134v4.074h2.674c1.12 0 2.058-.658 2.058-2.03 0-1.4-.938-2.044-2.058-2.044h-2.674zm14.3 0h-5.194v3.374h4.578v1.106h-4.578v3.724h5.194V136h-6.482v-10.472h6.482v1.134zM72.585 136l-2.352-4.2h-2.73v4.2h-1.288v-10.472h4.046c1.806 0 3.22 1.05 3.22 3.136 0 1.54-.77 2.52-1.918 2.926l2.464 4.41h-1.442zm-5.096-5.334h2.618c1.106 0 2.058-.63 2.058-2.002 0-1.372-.952-2.002-2.058-2.002h-2.618v4.004zm14.805-4.004H77.1v3.43h4.327v1.134H77.1V136h-1.287v-10.472h6.481v1.134zm6.483-1.274c2.968 0 5.264 2.044 5.264 5.376 0 3.332-2.296 5.376-5.264 5.376-2.982 0-5.278-2.044-5.278-5.376 0-3.332 2.296-5.376 5.278-5.376zm0 1.148c-2.24 0-3.976 1.554-3.976 4.228 0 2.66 1.736 4.228 3.976 4.228s3.962-1.568 3.962-4.228c0-2.674-1.722-4.228-3.962-4.228zM102.472 136l-2.352-4.2h-2.73v4.2h-1.288v-10.472h4.046c1.806 0 3.22 1.05 3.22 3.136 0 1.54-.77 2.52-1.918 2.926l2.464 4.41h-1.442zm-5.096-5.334h2.618c1.106 0 2.058-.63 2.058-2.002 0-1.372-.952-2.002-2.058-2.002h-2.618v4.004zM116.773 136h-1.274v-6.566l-4.256 6.622-4.256-6.622V136h-1.288v-10.626l5.544 8.456 5.53-8.456V136zm11.392 0h-1.4l-1.078-2.366h-4.9L119.709 136h-1.4l4.928-10.654L128.165 136zm-6.832-3.5h3.822l-1.918-4.2-1.904 4.2zm14.94.406v-7.378h1.274v10.626l-6.552-7.518V136h-1.288v-10.626l6.566 7.532zm8.473-7.518c2.464 0 4.452 1.47 4.774 3.878l-1.33.126c-.266-1.82-1.666-2.856-3.486-2.856-2.226 0-3.794 1.568-3.794 4.228 0 2.744 1.666 4.228 3.822 4.228 1.792 0 3.15-.966 3.472-2.702l1.33.112c-.392 2.324-2.296 3.738-4.76 3.738-2.94 0-5.166-1.974-5.166-5.376s2.184-5.376 5.138-5.376zm13.127 1.274h-5.194v3.374h4.578v1.106h-4.578v3.724h5.194V136h-6.482v-10.472h6.482v1.134zM78.605 153h-1.4l-1.079-2.366h-4.9L70.148 153h-1.4l4.928-10.654L78.605 153zm-6.833-3.5h3.822l-1.917-4.2-1.905 4.2zm14.941.406v-7.378h1.274v10.626l-6.552-7.518V153h-1.288v-10.626l6.566 7.532zM99.4 153H98l-1.079-2.366h-4.9L90.943 153h-1.4l4.928-10.654L99.4 153zm-6.833-3.5h3.822l-1.918-4.2-1.904 4.2zm9.662 2.366h5.25V153h-6.538v-10.472h1.288v9.338zm8.915-3.22V153h-1.274v-4.354l-3.976-6.118h1.484l3.136 4.858 3.108-4.858h1.484l-3.962 6.118zm8.769-6.258c2.058 0 3.528 1.064 3.612 2.912l-1.302.084c-.07-1.176-.966-1.876-2.282-1.876-1.498 0-2.268.798-2.268 1.82 0 1.246.98 1.512 2.548 1.876 2.254.532 3.612 1.078 3.612 2.912 0 2.1-1.68 3.024-3.724 3.024-2.198 0-3.878-1.092-3.976-3.052l1.288-.07c.098 1.232 1.232 2.002 2.688 2.002 1.386 0 2.422-.56 2.422-1.834 0-1.246-1.036-1.54-2.772-1.946-1.876-.448-3.388-.896-3.388-2.884 0-1.596 1.162-2.968 3.542-2.968zM127.085 153h-1.288v-10.472h1.288V153zm5.817-10.612c2.058 0 3.528 1.064 3.612 2.912l-1.302.084c-.07-1.176-.966-1.876-2.282-1.876-1.498 0-2.268.798-2.268 1.82 0 1.246.98 1.512 2.548 1.876 2.254.532 3.612 1.078 3.612 2.912 0 2.1-1.68 3.024-3.724 3.024-2.198 0-3.878-1.092-3.976-3.052l1.288-.07c.098 1.232 1.232 2.002 2.688 2.002 1.386 0 2.422-.56 2.422-1.834 0-1.246-1.036-1.54-2.772-1.946-1.876-.448-3.388-.896-3.388-2.884 0-1.596 1.162-2.968 3.542-2.968z" fill="#fff"/><circle cx="173.196" cy="144.396" r="3.7" fill="#fff"/><path d="M90.064 449l-2.352-4.2h-2.73v4.2h-1.288v-10.472h4.046c1.806 0 3.22 1.05 3.22 3.136 0 1.54-.77 2.52-1.918 2.926l2.464 4.41h-1.442zm-5.096-5.334h2.618c1.106 0 2.058-.63 2.058-2.002 0-1.372-.952-2.002-2.058-2.002h-2.618v4.004zm14.806-4.004H94.58v3.374h4.578v1.106H94.58v3.724h5.194V449h-6.482v-10.472h6.482v1.134zm5.723 9.506l-4.928-10.64h1.428l3.5 7.728 3.514-7.728h1.428l-4.942 10.64zm7.759-.168h-1.288v-10.472h1.288V449zm5.817-10.612c2.058 0 3.528 1.064 3.612 2.912l-1.302.084c-.07-1.176-.966-1.876-2.282-1.876-1.498 0-2.268.798-2.268 1.82 0 1.246.98 1.512 2.548 1.876 2.254.532 3.612 1.078 3.612 2.912 0 2.1-1.68 3.024-3.724 3.024-2.198 0-3.878-1.092-3.976-3.052l1.288-.07c.098 1.232 1.232 2.002 2.688 2.002 1.386 0 2.422-.56 2.422-1.834 0-1.246-1.036-1.54-2.772-1.946-1.876-.448-3.388-.896-3.388-2.884 0-1.596 1.162-2.968 3.542-2.968zM126.244 449h-1.288v-10.472h1.288V449zm7.315-10.612c2.968 0 5.264 2.044 5.264 5.376 0 3.332-2.296 5.376-5.264 5.376-2.982 0-5.278-2.044-5.278-5.376 0-3.332 2.296-5.376 5.278-5.376zm0 1.148c-2.24 0-3.976 1.554-3.976 4.228 0 2.66 1.736 4.228 3.976 4.228s3.962-1.568 3.962-4.228c0-2.674-1.722-4.228-3.962-4.228zm13.891 6.37v-7.378h1.274v10.626l-6.552-7.518V449h-1.288v-10.626l6.566 7.532zM163.473 449h-1.4l-1.078-2.366h-4.9L155.017 449h-1.4l4.928-10.654L163.473 449zm-6.832-3.5h3.822l-1.918-4.2-1.904 4.2zm14.94.406v-7.378h1.274v10.626l-6.552-7.518V449h-1.288v-10.626l6.566 7.532zm3.811-7.378h4.088c2.884 0 5.04 1.918 5.04 5.236 0 3.318-2.198 5.236-5.068 5.236h-4.06v-10.472zm1.274 1.092v8.288h2.8c2.184 0 3.78-1.442 3.78-4.144s-1.554-4.144-3.752-4.144h-2.828zM66.379 455.528h4.088c2.884 0 5.04 1.918 5.04 5.236 0 3.318-2.198 5.236-5.068 5.236h-4.06v-10.472zm1.274 1.092v8.288h2.8c2.184 0 3.78-1.442 3.78-4.144s-1.554-4.144-3.752-4.144h-2.828zm16.391.042H78.85v3.374h4.579v1.106H78.85v3.724h5.195V466h-6.483v-10.472h6.483v1.134zm3.106 8.204h5.25V466h-6.54v-10.472h1.288v9.338zM95.42 466h-1.287v-10.472h1.288V466zm6.42.168l-4.928-10.64h1.428l3.5 7.728 3.514-7.728h1.428l-4.942 10.64zm12.953-9.506h-5.194v3.374h4.578v1.106h-4.578v3.724h5.194V466h-6.482v-10.472h6.482v1.134zm8.186 9.338l-2.352-4.2h-2.73v4.2h-1.288v-10.472h4.046c1.806 0 3.22 1.05 3.22 3.136 0 1.54-.77 2.52-1.918 2.926l2.464 4.41h-1.442zm-5.096-5.334h2.618c1.106 0 2.058-.63 2.058-2.002 0-1.372-.952-2.002-2.058-2.002h-2.618v4.004zm12.552.98V466h-1.274v-4.354l-3.976-6.118h1.484l3.136 4.858 3.108-4.858h1.484l-3.962 6.118zm13.603-6.258c2.968 0 5.264 2.044 5.264 5.376 0 3.332-2.296 5.376-5.264 5.376-2.982 0-5.278-2.044-5.278-5.376 0-3.332 2.296-5.376 5.278-5.376zm0 1.148c-2.24 0-3.976 1.554-3.976 4.228 0 2.66 1.736 4.228 3.976 4.228s3.962-1.568 3.962-4.228c0-2.674-1.722-4.228-3.962-4.228zm13.807.126h-5.194v3.43h4.326v1.134h-4.326V466h-1.288v-10.472h6.482v1.134zm11.498 0h-5.194v3.43h4.326v1.134h-4.326V466h-1.288v-10.472h6.482v1.134zm2.968 9.338h-1.288v-10.472h1.288V466zm9.079-3.094v-7.378h1.274v10.626l-6.552-7.518V466h-1.288v-10.626l6.566 7.532zM194.077 466h-1.4l-1.078-2.366h-4.9L185.621 466h-1.4l4.928-10.654L194.077 466zm-6.832-3.5h3.822l-1.918-4.2-1.904 4.2zm9.662 2.366h5.25V466h-6.538v-10.472h1.288v9.338zM128.616 483h-1.4l-1.078-2.366h-4.9L120.16 483h-1.4l4.928-10.654L128.616 483zm-6.832-3.5h3.822l-1.918-4.2-1.904 4.2zm8.374-6.972h4.088c2.884 0 5.04 1.918 5.04 5.236 0 3.318-2.198 5.236-5.068 5.236h-4.06v-10.472zm1.274 1.092v8.288h2.8c2.184 0 3.78-1.442 3.78-4.144s-1.554-4.144-3.752-4.144h-2.828zm13.214-1.232c2.058 0 3.528 1.064 3.612 2.912l-1.302.084c-.07-1.176-.966-1.876-2.282-1.876-1.498 0-2.268.798-2.268 1.82 0 1.246.98 1.512 2.548 1.876 2.254.532 3.612 1.078 3.612 2.912 0 2.1-1.68 3.024-3.724 3.024-2.198 0-3.878-1.092-3.976-3.052l1.288-.07c.098 1.232 1.232 2.002 2.688 2.002 1.386 0 2.422-.56 2.422-1.834 0-1.246-1.036-1.54-2.772-1.946-1.876-.448-3.388-.896-3.388-2.884 0-1.596 1.162-2.968 3.542-2.968z" fill="#fff"/><circle cx="210.716" cy="440.7" r="3.7" fill="#fff"/><path d="M510.056 453.928c2.464 0 4.452 1.47 4.774 3.878l-1.33.126c-.266-1.82-1.666-2.856-3.486-2.856-2.226 0-3.794 1.568-3.794 4.228 0 2.744 1.666 4.228 3.822 4.228 1.792 0 3.15-.966 3.472-2.702l1.33.112c-.392 2.324-2.296 3.738-4.76 3.738-2.94 0-5.166-1.974-5.166-5.376s2.184-5.376 5.138-5.376zm13.015 10.612l-2.352-4.2h-2.73v4.2h-1.288v-10.472h4.046c1.806 0 3.22 1.05 3.22 3.136 0 1.54-.77 2.52-1.918 2.926l2.464 4.41h-1.442zm-5.096-5.334h2.618c1.106 0 2.058-.63 2.058-2.002 0-1.372-.952-2.002-2.058-2.002h-2.618v4.004zm17.199 5.334h-1.4l-1.078-2.366h-4.9l-1.078 2.366h-1.4l4.928-10.654 4.928 10.654zm-6.832-3.5h3.822l-1.918-4.2-1.904 4.2zm14.856-5.838h-5.194v3.43h4.326v1.134h-4.326v4.774h-1.288v-10.472h6.482v1.134zm10.004 0h-3.892v9.338h-1.288v-9.338h-3.892v-1.134h9.072v1.134zm2.781 9.338h-1.288v-10.472h1.288v10.472zm9.079-3.094v-7.378h1.274v10.626l-6.552-7.518v7.364h-1.288v-10.626l6.566 7.532zm13.288-2.226v.434c0 3.122-1.89 5.026-4.83 5.026-2.912 0-5.124-1.974-5.124-5.376s2.184-5.376 5.11-5.376c2.394 0 4.34 1.358 4.76 3.71l-1.33.21c-.266-1.736-1.624-2.772-3.444-2.772-2.226 0-3.794 1.456-3.794 4.228s1.596 4.228 3.794 4.228c1.904 0 3.276-1.008 3.486-3.178h-3.444v-1.134h4.816zm11.838-4.018h-5.194v3.43h4.326v1.134h-4.326v4.774h-1.288v-10.472h6.482v1.134zm2.969 9.338h-1.288v-10.472h1.288v10.472zm8.882 0l-2.352-4.2h-2.73v4.2h-1.288v-10.472h4.046c1.806 0 3.22 1.05 3.22 3.136 0 1.54-.77 2.52-1.918 2.926l2.464 4.41h-1.442zm-5.096-5.334h2.618c1.106 0 2.058-.63 2.058-2.002 0-1.372-.952-2.002-2.058-2.002h-2.618v4.004zm11.628-5.278c2.058 0 3.528 1.064 3.612 2.912l-1.302.084c-.07-1.176-.966-1.876-2.282-1.876-1.498 0-2.268.798-2.268 1.82 0 1.246.98 1.512 2.548 1.876 2.254.532 3.612 1.078 3.612 2.912 0 2.1-1.68 3.024-3.724 3.024-2.198 0-3.878-1.092-3.976-3.052l1.288-.07c.098 1.232 1.232 2.002 2.688 2.002 1.386 0 2.422-.56 2.422-1.834 0-1.246-1.036-1.54-2.772-1.946-1.876-.448-3.388-.896-3.388-2.884 0-1.596 1.162-2.968 3.542-2.968zm13.934 1.274h-3.892v9.338h-1.288v-9.338h-3.892v-1.134h9.072v1.134zm-86.992 15.866h4.088c2.884 0 5.04 1.918 5.04 5.236 0 3.318-2.198 5.236-5.068 5.236h-4.06v-10.472zm1.274 1.092v8.288h2.8c2.184 0 3.78-1.442 3.78-4.144s-1.554-4.144-3.752-4.144h-2.828zm16.28 9.38l-2.352-4.2h-2.73v4.2h-1.288v-10.472h4.046c1.806 0 3.22 1.05 3.22 3.136 0 1.54-.77 2.52-1.918 2.926l2.464 4.41h-1.442zm-5.096-5.334h2.618c1.106 0 2.058-.63 2.058-2.002 0-1.372-.952-2.002-2.058-2.002h-2.618v4.004zm17.199 5.334h-1.4l-1.078-2.366h-4.9l-1.078 2.366h-1.4l4.928-10.654 4.928 10.654zm-6.832-3.5h3.822l-1.918-4.2-1.904 4.2zm14.856-5.838H568v3.43h4.326v1.134H568v4.774h-1.288v-10.472h6.482v1.134zm10.004 0h-3.892v9.338h-1.288v-9.338h-3.892v-1.134h9.072v1.134zm4.797-1.274c2.058 0 3.528 1.064 3.612 2.912l-1.302.084c-.07-1.176-.966-1.876-2.282-1.876-1.498 0-2.268.798-2.268 1.82 0 1.246.98 1.512 2.548 1.876 2.254.532 3.612 1.078 3.612 2.912 0 2.1-1.68 3.024-3.724 3.024-2.198 0-3.878-1.092-3.976-3.052l1.288-.07c.098 1.232 1.232 2.002 2.688 2.002 1.386 0 2.422-.56 2.422-1.834 0-1.246-1.036-1.54-2.772-1.946-1.876-.448-3.388-.896-3.388-2.884 0-1.596 1.162-2.968 3.542-2.968z" fill="#fff"/><circle cx="508.926" cy="440.7" r="3.7" fill="#fff"/><path d="M300.29 18.02h-1.4l-1.078-2.367h-4.9l-1.078 2.366h-1.4l4.928-10.654 4.928 10.654zm-6.832-3.5h3.822l-1.918-4.2-1.904 4.2zm9.662 2.365h5.25v1.134h-6.538V7.547h1.288v9.338zm8.271 1.135h-1.288V7.546h1.288V18.02zm11.991-5.32v.433c0 3.122-1.89 5.026-4.83 5.026-2.912 0-5.124-1.974-5.124-5.376s2.184-5.376 5.11-5.376c2.394 0 4.34 1.358 4.76 3.71l-1.33.21c-.266-1.736-1.624-2.772-3.444-2.772-2.226 0-3.794 1.456-3.794 4.228s1.596 4.228 3.794 4.228c1.904 0 3.276-1.008 3.486-3.178h-3.444V12.7h4.816zm8.586 2.225V7.547h1.274v10.626l-6.552-7.518v7.364h-1.288V7.393l6.566 7.532zm5.099 3.095h-1.288V7.546h1.288V18.02zm9.079-3.095V7.547h1.274v10.626l-6.552-7.518v7.364h-1.288V7.393l6.566 7.532zm13.289-2.225v.433c0 3.122-1.89 5.026-4.83 5.026-2.912 0-5.124-1.974-5.124-5.376s2.184-5.376 5.11-5.376c2.394 0 4.34 1.358 4.76 3.71l-1.33.21c-.266-1.736-1.624-2.772-3.444-2.772-2.226 0-3.794 1.456-3.794 4.228s1.596 4.228 3.794 4.228c1.904 0 3.276-1.008 3.486-3.178h-3.444V12.7h4.816zm10.158-5.293c2.968 0 5.264 2.044 5.264 5.376 0 3.332-2.296 5.376-5.264 5.376-2.982 0-5.278-2.044-5.278-5.376 0-3.332 2.296-5.376 5.278-5.376zm0 1.148c-2.24 0-3.976 1.554-3.976 4.228 0 2.66 1.736 4.228 3.976 4.228s3.962-1.568 3.962-4.228c0-2.674-1.722-4.228-3.962-4.228zm13.891 6.37V7.547h1.273v10.626l-6.552-7.518v7.364h-1.287V7.393l6.566 7.532zm11.808-7.518c2.464 0 4.452 1.47 4.774 3.878l-1.33.126c-.266-1.82-1.666-2.856-3.486-2.856-2.226 0-3.794 1.568-3.794 4.228 0 2.744 1.666 4.228 3.822 4.228 1.792 0 3.15-.966 3.472-2.702l1.33.112c-.392 2.324-2.296 3.738-4.76 3.738-2.94 0-5.166-1.974-5.166-5.376s2.184-5.376 5.138-5.376zm13.015 10.613l-2.352-4.2h-2.73v4.2h-1.288V7.546h4.046c1.806 0 3.22 1.05 3.22 3.136 0 1.54-.77 2.52-1.918 2.926l2.464 4.41h-1.442zm-5.096-5.335h2.618c1.106 0 2.058-.63 2.058-2.002 0-1.372-.952-2.002-2.058-2.002h-2.618v4.004zm14.806-4.004h-5.194v3.374h4.578v1.106h-4.578v3.724h5.194v1.134h-6.482V7.547h6.482v1.134zm10.693 9.339h-1.4l-1.078-2.367h-4.9l-1.078 2.366h-1.4l4.928-10.654 4.928 10.654zm-6.832-3.5h3.822l-1.918-4.2-1.904 4.2zm14.55-5.839h-3.892v9.338h-1.288V8.681h-3.892V7.547h9.072v1.134zm2.781 9.339h-1.288V7.546h1.288V18.02zm6.419.167L440.7 7.547h1.428l3.5 7.728 3.514-7.728h1.428l-4.942 10.64zm12.953-9.506h-5.194v3.374h4.578v1.106h-4.578v3.724h5.194v1.134h-6.482V7.547h6.482v1.134zm-153.8 26.339h-1.4l-1.078-2.367h-4.9l-1.078 2.366h-1.4l4.928-10.654 4.928 10.654zm-6.832-3.5h3.822l-1.918-4.2-1.904 4.2zm14.94.405v-7.378h1.274v10.626l-6.552-7.518v7.364h-1.288V24.393l6.566 7.532zm3.811-7.378h4.088c2.884 0 5.04 1.918 5.04 5.236 0 3.318-2.198 5.236-5.068 5.236h-4.06V24.547zm1.274 1.092v8.288h2.8c2.184 0 3.78-1.442 3.78-4.144S323 25.64 320.802 25.64h-2.828zm13.245-1.092h3.92c1.792 0 3.122.924 3.122 2.786 0 1.162-.518 1.89-1.19 2.226.868.294 1.638 1.134 1.638 2.562 0 1.96-1.4 2.898-3.206 2.898h-4.284V24.547zm1.274 1.134v3.416h2.842c.938 0 1.624-.462 1.624-1.68 0-1.162-.812-1.736-1.974-1.736h-2.492zm0 4.522v3.682h2.856c1.12 0 2.058-.518 2.058-1.834 0-1.344-.952-1.848-1.946-1.848h-2.968zm16.584-5.656v6.538c0 2.632-1.638 4.074-4.172 4.074-2.548 0-4.172-1.442-4.172-4.074v-6.538h1.274v6.524c0 1.946 1.092 2.94 2.898 2.94 1.778 0 2.898-.994 2.898-2.94v-6.524h1.274zm5.735-.14c2.058 0 3.528 1.064 3.612 2.912l-1.302.084c-.07-1.176-.966-1.876-2.282-1.876-1.498 0-2.268.798-2.268 1.82 0 1.246.98 1.512 2.548 1.876 2.254.532 3.612 1.078 3.612 2.912 0 2.1-1.68 3.024-3.724 3.024-2.198 0-3.878-1.092-3.976-3.052l1.288-.07c.098 1.232 1.232 2.002 2.688 2.002 1.386 0 2.422-.56 2.422-1.834 0-1.246-1.036-1.54-2.772-1.946-1.876-.448-3.388-.896-3.388-2.884 0-1.596 1.162-2.968 3.542-2.968zm7.172 10.613h-1.288V24.546h1.288V35.02zm9.079-3.095v-7.378h1.274v10.626l-6.552-7.518v7.364h-1.288V24.393l6.566 7.532zm10.293-6.244h-5.194v3.374h4.578v1.106h-4.578v3.724h5.194v1.134h-6.482V24.547h6.482v1.134zm5.12-1.274c2.058 0 3.528 1.064 3.612 2.912l-1.302.084c-.07-1.176-.966-1.876-2.282-1.876-1.498 0-2.268.798-2.268 1.82 0 1.246.98 1.512 2.548 1.876 2.254.532 3.612 1.078 3.612 2.912 0 2.1-1.68 3.024-3.724 3.024-2.198 0-3.878-1.092-3.976-3.052l1.288-.07c.098 1.232 1.232 2.002 2.688 2.002 1.386 0 2.422-.56 2.422-1.834 0-1.246-1.036-1.54-2.772-1.946-1.876-.448-3.388-.896-3.388-2.884 0-1.596 1.162-2.968 3.542-2.968zm9.188 0c2.058 0 3.528 1.064 3.612 2.912l-1.302.084c-.07-1.176-.966-1.876-2.282-1.876-1.498 0-2.268.798-2.268 1.82 0 1.246.98 1.512 2.548 1.876 2.254.532 3.612 1.078 3.612 2.912 0 2.1-1.68 3.024-3.724 3.024-2.198 0-3.878-1.092-3.976-3.052l1.288-.07c.098 1.232 1.232 2.002 2.688 2.002 1.386 0 2.422-.56 2.422-1.834 0-1.246-1.036-1.54-2.772-1.946-1.876-.448-3.388-.896-3.388-2.884 0-1.596 1.162-2.968 3.542-2.968zm18.697 5.293v.433c0 3.122-1.89 5.026-4.83 5.026-2.912 0-5.124-1.974-5.124-5.376s2.184-5.376 5.11-5.376c2.394 0 4.34 1.358 4.76 3.71l-1.33.21c-.266-1.736-1.624-2.772-3.444-2.772-2.226 0-3.794 1.456-3.794 4.228s1.596 4.228 3.794 4.228c1.904 0 3.276-1.008 3.486-3.178h-3.444V29.7h4.816zm6.822-5.293c2.968 0 5.264 2.044 5.264 5.376 0 3.332-2.296 5.376-5.264 5.376-2.982 0-5.278-2.044-5.278-5.376 0-3.332 2.296-5.376 5.278-5.376zm0 1.148c-2.24 0-3.976 1.554-3.976 4.228 0 2.66 1.736 4.228 3.976 4.228s3.962-1.568 3.962-4.228c0-2.674-1.722-4.228-3.962-4.228zm15.723 9.465h-1.4l-1.078-2.367h-4.9l-1.078 2.366h-1.4l4.928-10.654 4.928 10.654zm-6.832-3.5h3.822l-1.918-4.2-1.904 4.2zm9.662 2.365h5.25v1.134h-6.538V24.547h1.288v9.338zm10.287-9.478c2.058 0 3.528 1.064 3.612 2.912l-1.302.084c-.07-1.176-.966-1.876-2.282-1.876-1.498 0-2.268.798-2.268 1.82 0 1.246.98 1.512 2.548 1.876 2.254.532 3.612 1.078 3.612 2.912 0 2.1-1.68 3.024-3.724 3.024-2.198 0-3.878-1.092-3.976-3.052l1.288-.07c.098 1.232 1.232 2.002 2.688 2.002 1.386 0 2.422-.56 2.422-1.834 0-1.246-1.036-1.54-2.772-1.946-1.876-.448-3.388-.896-3.388-2.884 0-1.596 1.162-2.968 3.542-2.968z" fill="#fff"/><circle cx="371.317" cy="48.938" r="3.7" fill="#fff"/><path d="M595.314 216.822c2.464 0 4.452 1.47 4.774 3.878l-1.33.126c-.266-1.82-1.666-2.856-3.486-2.856-2.226 0-3.794 1.568-3.794 4.228 0 2.744 1.666 4.228 3.822 4.228 1.792 0 3.15-.966 3.472-2.702l1.33.112c-.392 2.324-2.296 3.738-4.76 3.738-2.94 0-5.166-1.974-5.166-5.376s2.184-5.376 5.138-5.376zm13.014 10.612l-2.352-4.2h-2.73v4.2h-1.288v-10.472h4.046c1.806 0 3.22 1.05 3.22 3.136 0 1.54-.77 2.52-1.918 2.926l2.464 4.41h-1.442zm-5.096-5.334h2.618c1.106 0 2.058-.63 2.058-2.002 0-1.372-.952-2.002-2.058-2.002h-2.618v4.004zm14.806-4.004h-5.194v3.374h4.578v1.106h-4.578v3.724h5.194v1.134h-6.482v-10.472h6.482v1.134zm10.693 9.338h-1.4l-1.078-2.366h-4.9l-1.078 2.366h-1.4l4.928-10.654 4.928 10.654zm-6.832-3.5h3.822l-1.918-4.2-1.904 4.2zm14.551-5.838h-3.892v9.338h-1.288v-9.338h-3.892v-1.134h9.072v1.134zm2.781 9.338h-1.288v-10.472h1.288v10.472zm6.419.168l-4.928-10.64h1.428l3.5 7.728 3.514-7.728h1.428l-4.942 10.64zm12.953-9.506h-5.194v3.374h4.578v1.106h-4.578v3.724h5.194v1.134h-6.482v-10.472h6.482v1.134zm14.028 9.338h-1.4l-1.078-2.366h-4.9l-1.078 2.366h-1.4l4.928-10.654 4.928 10.654zm-6.832-3.5h3.822l-1.918-4.2-1.904 4.2zm16.374-6.972v6.538c0 2.632-1.638 4.074-4.172 4.074-2.548 0-4.172-1.442-4.172-4.074v-6.538h1.275v6.524c0 1.946 1.091 2.94 2.897 2.94 1.778 0 2.899-.994 2.899-2.94v-6.524h1.273zm2.432 0h4.088c2.884 0 5.04 1.918 5.04 5.236 0 3.318-2.198 5.236-5.068 5.236h-4.06v-10.472zm1.274 1.092v8.288h2.8c2.184 0 3.78-1.442 3.78-4.144s-1.554-4.144-3.752-4.144h-2.828zm11.197 9.38h-1.288v-10.472h1.288v10.472zm10.563-9.338h-3.892v9.338h-1.288v-9.338h-3.892v-1.134h9.072v1.134zm-104.481 26.338h-1.4l-1.078-2.366h-4.9l-1.078 2.366h-1.4l4.928-10.654 4.928 10.654zm-6.832-3.5h3.822l-1.918-4.2-1.904 4.2zm14.94.406v-7.378h1.274v10.626l-6.552-7.518v7.364H604.7v-10.626l6.566 7.532zm3.811-7.378h4.088c2.884 0 5.04 1.918 5.04 5.236 0 3.318-2.198 5.236-5.068 5.236h-4.06v-10.472zm1.274 1.092v8.288h2.8c2.184 0 3.78-1.442 3.78-4.144s-1.554-4.144-3.752-4.144h-2.828zm16.549-1.232c2.058 0 3.528 1.064 3.612 2.912l-1.302.084c-.07-1.176-.966-1.876-2.282-1.876-1.498 0-2.268.798-2.268 1.82 0 1.246.98 1.512 2.548 1.876 2.254.532 3.612 1.078 3.612 2.912 0 2.1-1.68 3.024-3.724 3.024-2.198 0-3.878-1.092-3.976-3.052l1.288-.07c.098 1.232 1.232 2.002 2.688 2.002 1.386 0 2.422-.56 2.422-1.834 0-1.246-1.036-1.54-2.772-1.946-1.876-.448-3.388-.896-3.388-2.884 0-1.596 1.162-2.968 3.542-2.968zm13.934 1.274h-3.892v9.338h-1.288v-9.338h-3.892v-1.134h9.072v1.134zm7.863 9.338l-2.352-4.2h-2.73v4.2h-1.288v-10.472h4.046c1.806 0 3.22 1.05 3.22 3.136 0 1.54-.77 2.52-1.918 2.926l2.464 4.41h-1.442zm-5.096-5.334h2.618c1.106 0 2.058-.63 2.058-2.002 0-1.372-.952-2.002-2.058-2.002h-2.618v4.004zm17.199 5.334h-1.4l-1.078-2.366h-4.9l-1.078 2.366h-1.4l4.928-10.654 4.928 10.654zm-6.832-3.5h3.822l-1.918-4.2-1.904 4.2zm14.551-5.838h-3.892v9.338h-1.288v-9.338h-3.892v-1.134h9.072v1.134zm7.975 0H677.3v3.374h4.578v1.106H677.3v3.724h5.194v1.134h-6.482v-10.472h6.482v1.134zm11.295 4.018v.434c0 3.122-1.89 5.026-4.83 5.026-2.912 0-5.124-1.974-5.124-5.376s2.184-5.376 5.11-5.376c2.394 0 4.34 1.358 4.76 3.71l-1.33.21c-.266-1.736-1.624-2.772-3.444-2.772-2.226 0-3.794 1.456-3.794 4.228s1.596 4.228 3.794 4.228c1.904 0 3.276-1.008 3.486-3.178h-3.444v-1.134h4.816zm6.248.966v4.354h-1.274v-4.354l-3.976-6.118h1.484l3.136 4.858 3.108-4.858h1.484l-3.962 6.118z" fill="#fff"/><circle cx="577.223" cy="231.714" r="3.7" fill="#fff"/></g><defs><linearGradient id="b" x1="481.765" y1="-52.744" x2="-2.553" y2="675.767" gradientUnits="userSpaceOnUse"><stop offset=".362" stop-color="#FFEC89"/><stop offset=".859" stop-color="#EA55EF"/></linearGradient><linearGradient id="c" x1="266.804" y1="439.279" x2="457.719" y2="-144.196" gradientUnits="userSpaceOnUse"><stop offset=".286" stop-color="#EA54EE"/><stop offset="1" stop-color="#FFED8A"/></linearGradient></defs></svg>