<svg width="740" height="520" viewBox="0 0 740 520" fill="none" xmlns="http://www.w3.org/2000/svg"><mask id="a" style="mask-type:alpha" maskUnits="userSpaceOnUse" x="0" y="0" width="740" height="520"><path fill="#D9D9D9" d="M0 0h740v520H0z"/></mask><g mask="url(#a)"><path d="M367.895 57.45a210.638 210.638 0 0 0-191.763 128.302 210.63 210.63 0 0 0 40.871 227.079l38.983-36.881a156.971 156.971 0 0 1 112.449-264.839l-.54-53.662z" fill="url(#b)"/><path d="M579.366 289.215A210.634 210.634 0 0 0 365.227 57.488l1.164 53.652a156.965 156.965 0 0 1 152.271 107.151 156.975 156.975 0 0 1 7.311 65.538l53.393 5.386z" fill="url(#c)"/><path d="M213.211 408.713a210.634 210.634 0 0 0 366.407-119.821l-53.402-5.304a156.973 156.973 0 0 1-107.412 133.681 156.964 156.964 0 0 1-165.643-44.388l-39.95 35.832z" fill="url(#d)"/><path d="M400.442 85.196l-33.369 24.142-.895-49.943 34.264 25.8z" fill="#FFED8A" stroke="#FFED8A" stroke-width="2"/><path d="M210.89 365.236l40.406 8.218-37.324 33.558-3.082-41.776z" fill="#8741E3" stroke="#8741E3" stroke-width="2"/><path d="M547.267 315.344l-19.185-30.473 49.324 4.258-30.139 26.215z" fill="#EB55EF" stroke="#EB55EF" stroke-width="2"/><path d="M278.286 18.654h-1.4l-1.078-2.366h-4.9l-1.078 2.366h-1.4L273.358 8l4.928 10.654zm-6.832-3.5h3.822l-1.918-4.2-1.904 4.2zm9.662 2.366h5.25v1.134h-6.538V8.182h1.288v9.338zm8.271 1.134h-1.288V8.182h1.288v10.472zm11.991-5.32v.434c0 3.122-1.89 5.026-4.83 5.026-2.912 0-5.124-1.974-5.124-5.376s2.184-5.376 5.11-5.376c2.394 0 4.34 1.358 4.76 3.71l-1.33.21c-.266-1.736-1.624-2.772-3.444-2.772-2.226 0-3.794 1.456-3.794 4.228s1.596 4.228 3.794 4.228c1.904 0 3.276-1.008 3.486-3.178h-3.444v-1.134h4.816zm8.586 2.226V8.182h1.274v10.626l-6.552-7.518v7.364h-1.288V8.028l6.566 7.532zm5.099 3.094h-1.288V8.182h1.288v10.472zm9.079-3.094V8.182h1.274v10.626l-6.552-7.518v7.364h-1.288V8.028l6.566 7.532zm13.289-2.226v.434c0 3.122-1.89 5.026-4.83 5.026-2.912 0-5.124-1.974-5.124-5.376s2.184-5.376 5.11-5.376c2.394 0 4.34 1.358 4.76 3.71l-1.33.21c-.266-1.736-1.624-2.772-3.444-2.772-2.226 0-3.794 1.456-3.794 4.228s1.596 4.228 3.794 4.228c1.904 0 3.276-1.008 3.486-3.178h-3.444v-1.134h4.816zm10.158-5.292c2.968 0 5.264 2.044 5.264 5.376 0 3.332-2.296 5.376-5.264 5.376-2.982 0-5.278-2.044-5.278-5.376 0-3.332 2.296-5.376 5.278-5.376zm0 1.148c-2.24 0-3.976 1.554-3.976 4.228 0 2.66 1.736 4.228 3.976 4.228s3.962-1.568 3.962-4.228c0-2.674-1.722-4.228-3.962-4.228zm13.891 6.37V8.182h1.274v10.626l-6.552-7.518v7.364h-1.288V8.028l6.566 7.532zm11.808-7.518c2.464 0 4.452 1.47 4.774 3.878l-1.33.126c-.266-1.82-1.666-2.856-3.486-2.856-2.226 0-3.794 1.568-3.794 4.228 0 2.744 1.666 4.228 3.822 4.228 1.792 0 3.15-.966 3.472-2.702l1.33.112c-.392 2.324-2.296 3.738-4.76 3.738-2.94 0-5.166-1.974-5.166-5.376s2.184-5.376 5.138-5.376zm13.015 10.612l-2.352-4.2h-2.73v4.2h-1.288V8.182h4.046c1.806 0 3.22 1.05 3.22 3.136 0 1.54-.77 2.52-1.918 2.926l2.464 4.41h-1.442zm-5.096-5.334h2.618c1.106 0 2.058-.63 2.058-2.002 0-1.372-.952-2.002-2.058-2.002h-2.618v4.004zm14.806-4.004h-5.194v3.374h4.578v1.106h-4.578v3.724h5.194v1.134h-6.482V8.182h6.482v1.134zm10.693 9.338h-1.4l-1.078-2.366h-4.9l-1.078 2.366h-1.4L401.778 8l4.928 10.654zm-6.832-3.5h3.822l-1.918-4.2-1.904 4.2zm14.551-5.838h-3.892v9.338h-1.288V9.316h-3.892V8.182h9.072v1.134zm2.781 9.338h-1.289V8.182h1.289v10.472zm6.418.168l-4.928-10.64h1.428l3.5 7.728 3.514-7.728h1.428l-4.942 10.64zm12.953-9.506h-5.194v3.374h4.578v1.106h-4.578v3.724h5.194v1.134h-6.482V8.182h6.482v1.134zm14.029 9.338h-1.4l-1.078-2.366h-4.9l-1.078 2.366h-1.4L445.678 8l4.928 10.654zm-6.832-3.5h3.822l-1.918-4.2-1.904 4.2zm14.94.406V8.182h1.274v10.626l-6.552-7.518v7.364h-1.288V8.028l6.566 7.532zm3.811-7.378h4.088c2.884 0 5.04 1.918 5.04 5.236 0 3.318-2.198 5.236-5.068 5.236h-4.06V8.182zm1.274 1.092v8.288h2.8c2.184 0 3.78-1.442 3.78-4.144s-1.554-4.144-3.752-4.144h-2.828zM309.215 25.182h3.92c1.792 0 3.122.924 3.122 2.786 0 1.162-.518 1.89-1.19 2.226.868.294 1.638 1.134 1.638 2.562 0 1.96-1.4 2.898-3.206 2.898h-4.284V25.182zm1.274 1.134v3.416h2.842c.938 0 1.624-.462 1.624-1.68 0-1.162-.812-1.736-1.974-1.736h-2.492zm0 4.522v3.682h2.856c1.12 0 2.058-.518 2.058-1.834 0-1.344-.952-1.848-1.946-1.848h-2.968zm16.584-5.656v6.538c0 2.632-1.638 4.074-4.172 4.074-2.548 0-4.172-1.442-4.172-4.074v-6.538h1.274v6.524c0 1.946 1.092 2.94 2.898 2.94 1.778 0 2.898-.994 2.898-2.94v-6.524h1.274zm5.735-.14c2.058 0 3.528 1.064 3.612 2.912l-1.302.084c-.07-1.176-.966-1.876-2.282-1.876-1.498 0-2.268.798-2.268 1.82 0 1.246.98 1.512 2.548 1.876 2.254.532 3.612 1.078 3.612 2.912 0 2.1-1.68 3.024-3.724 3.024-2.198 0-3.878-1.092-3.976-3.052l1.288-.07c.098 1.232 1.232 2.002 2.688 2.002 1.386 0 2.422-.56 2.422-1.834 0-1.246-1.036-1.54-2.772-1.946-1.876-.448-3.388-.896-3.388-2.884 0-1.596 1.162-2.968 3.542-2.968zm7.172 10.612h-1.288V25.182h1.288v10.472zm9.079-3.094v-7.378h1.274v10.626l-6.552-7.518v7.364h-1.288V25.028l6.566 7.532zm10.293-6.244h-5.194v3.374h4.578v1.106h-4.578v3.724h5.194v1.134h-6.482V25.182h6.482v1.134zm5.12-1.274c2.058 0 3.528 1.064 3.612 2.912l-1.302.084c-.07-1.176-.966-1.876-2.282-1.876-1.498 0-2.268.798-2.268 1.82 0 1.246.98 1.512 2.548 1.876 2.254.532 3.612 1.078 3.612 2.912 0 2.1-1.68 3.024-3.724 3.024-2.198 0-3.878-1.092-3.976-3.052l1.288-.07c.098 1.232 1.232 2.002 2.688 2.002 1.386 0 2.422-.56 2.422-1.834 0-1.246-1.036-1.54-2.772-1.946-1.876-.448-3.388-.896-3.388-2.884 0-1.596 1.162-2.968 3.542-2.968zm9.188 0c2.058 0 3.528 1.064 3.612 2.912l-1.302.084c-.07-1.176-.966-1.876-2.282-1.876-1.498 0-2.268.798-2.268 1.82 0 1.246.98 1.512 2.548 1.876 2.254.532 3.612 1.078 3.612 2.912 0 2.1-1.68 3.024-3.724 3.024-2.198 0-3.878-1.092-3.976-3.052l1.288-.07c.098 1.232 1.232 2.002 2.688 2.002 1.386 0 2.422-.56 2.422-1.834 0-1.246-1.036-1.54-2.772-1.946-1.876-.448-3.388-.896-3.388-2.884 0-1.596 1.162-2.968 3.542-2.968zm18.697 5.292v.434c0 3.122-1.89 5.026-4.83 5.026-2.912 0-5.124-1.974-5.124-5.376s2.184-5.376 5.11-5.376c2.394 0 4.34 1.358 4.76 3.71l-1.33.21c-.266-1.736-1.624-2.772-3.444-2.772-2.226 0-3.794 1.456-3.794 4.228s1.596 4.228 3.794 4.228c1.904 0 3.276-1.008 3.486-3.178h-3.444v-1.134h4.816zm6.822-5.292c2.968 0 5.264 2.044 5.264 5.376 0 3.332-2.296 5.376-5.264 5.376-2.982 0-5.278-2.044-5.278-5.376 0-3.332 2.296-5.376 5.278-5.376zm0 1.148c-2.24 0-3.976 1.554-3.976 4.228 0 2.66 1.736 4.228 3.976 4.228s3.962-1.568 3.962-4.228c0-2.674-1.722-4.228-3.962-4.228zm15.723 9.464h-1.4l-1.078-2.366h-4.9l-1.078 2.366h-1.4L409.974 25l4.928 10.654zm-6.832-3.5h3.822l-1.918-4.2-1.904 4.2zm9.662 2.366h5.25v1.134h-6.538V25.182h1.288v9.338zm10.287-9.478c2.058 0 3.528 1.064 3.612 2.912l-1.302.084c-.07-1.176-.966-1.876-2.282-1.876-1.498 0-2.268.798-2.268 1.82 0 1.246.98 1.512 2.548 1.876 2.254.532 3.612 1.078 3.612 2.912 0 2.1-1.68 3.024-3.724 3.024-2.198 0-3.878-1.092-3.976-3.052l1.288-.07c.098 1.232 1.232 2.002 2.688 2.002 1.386 0 2.422-.56 2.422-1.834 0-1.246-1.036-1.54-2.772-1.946-1.876-.448-3.388-.896-3.388-2.884 0-1.596 1.162-2.968 3.542-2.968zm100.803 63c2.464 0 4.452 1.47 4.774 3.878l-1.33.126c-.266-1.82-1.666-2.856-3.486-2.856-2.226 0-3.794 1.568-3.794 4.228 0 2.744 1.666 4.228 3.822 4.228 1.792 0 3.15-.966 3.472-2.702l1.33.112c-.392 2.324-2.296 3.738-4.76 3.738-2.94 0-5.166-1.974-5.166-5.376s2.184-5.376 5.138-5.376zm13.014 10.612l-2.352-4.2h-2.73v4.2h-1.288V88.182h4.046c1.806 0 3.22 1.05 3.22 3.136 0 1.54-.77 2.52-1.918 2.926l2.464 4.41h-1.442zm-5.096-5.334h2.618c1.106 0 2.058-.63 2.058-2.002 0-1.372-.952-2.002-2.058-2.002h-2.618v4.004zm14.806-4.004h-5.194v3.374h4.578v1.106h-4.578v3.724h5.194v1.134h-6.482V88.182h6.482v1.134zm10.693 9.338h-1.4l-1.078-2.366h-4.9l-1.078 2.366h-1.4L557.311 88l4.928 10.654zm-6.832-3.5h3.822l-1.918-4.2-1.904 4.2zm14.551-5.838h-3.892v9.338h-1.288v-9.338h-3.892v-1.134h9.072v1.134zm2.781 9.338h-1.288V88.182h1.288v10.472zm6.418.168l-4.928-10.64h1.428l3.5 7.728 3.514-7.728h1.428l-4.942 10.64zm12.953-9.506h-5.194v3.374h4.578v1.106h-4.578v3.724h5.194v1.134h-6.482V88.182h6.482v1.134zm14.029 9.338h-1.4l-1.078-2.366h-4.9l-1.078 2.366h-1.4L601.211 88l4.928 10.654zm-6.832-3.5h3.822l-1.918-4.2-1.904 4.2zm16.374-6.972v6.538c0 2.632-1.638 4.074-4.172 4.074-2.548 0-4.172-1.442-4.172-4.074v-6.538h1.274v6.524c0 1.946 1.092 2.94 2.898 2.94 1.778 0 2.898-.994 2.898-2.94v-6.524h1.274zm2.432 0h4.088c2.884 0 5.04 1.918 5.04 5.236 0 3.318-2.198 5.236-5.068 5.236h-4.06V88.182zm1.274 1.092v8.288h2.8c2.184 0 3.78-1.442 3.78-4.144s-1.554-4.144-3.752-4.144h-2.828zm11.197 9.38h-1.288V88.182h1.288v10.472zm10.563-9.338h-3.892v9.338h-1.288v-9.338h-3.892v-1.134h9.072v1.134zm13.705 9.338h-1.4l-1.078-2.366h-4.9l-1.078 2.366h-1.4L649.924 88l4.928 10.654zm-6.832-3.5h3.822l-1.918-4.2-1.904 4.2zm14.94.406v-7.378h1.274v10.626l-6.552-7.518v7.364h-1.288V88.028l6.566 7.532zm3.811-7.378h4.088c2.884 0 5.04 1.918 5.04 5.236 0 3.318-2.198 5.236-5.068 5.236h-4.06V88.182zm1.274 1.092v8.288h2.8c2.184 0 3.78-1.442 3.78-4.144s-1.554-4.144-3.752-4.144h-2.828zm-101.637 15.768c2.058 0 3.528 1.064 3.612 2.912l-1.302.084c-.07-1.176-.966-1.876-2.282-1.876-1.498 0-2.268.798-2.268 1.82 0 1.246.98 1.512 2.548 1.876 2.254.532 3.612 1.078 3.612 2.912 0 2.1-1.68 3.024-3.724 3.024-2.198 0-3.878-1.092-3.976-3.052l1.288-.07c.098 1.232 1.232 2.002 2.688 2.002 1.386 0 2.422-.56 2.422-1.834 0-1.246-1.036-1.54-2.772-1.946-1.876-.448-3.388-.896-3.388-2.884 0-1.596 1.162-2.968 3.542-2.968zm13.933 1.274h-3.892v9.338h-1.288v-9.338h-3.892v-1.134h9.072v1.134zm7.863 9.338l-2.352-4.2h-2.73v4.2h-1.288v-10.472h4.046c1.806 0 3.22 1.05 3.22 3.136 0 1.54-.77 2.52-1.918 2.926l2.464 4.41h-1.442zm-5.096-5.334h2.618c1.106 0 2.058-.63 2.058-2.002 0-1.372-.952-2.002-2.058-2.002h-2.618v4.004zm17.2 5.334h-1.4l-1.078-2.366h-4.9l-1.078 2.366h-1.4L595.38 105l4.928 10.654zm-6.832-3.5h3.822l-1.918-4.2-1.904 4.2zm14.551-5.838h-3.892v9.338h-1.288v-9.338h-3.892v-1.134h9.072v1.134zm7.975 0h-5.194v3.374h4.578v1.106h-4.578v3.724h5.194v1.134h-6.482v-10.472h6.482v1.134zm11.295 4.018v.434c0 3.122-1.89 5.026-4.83 5.026-2.912 0-5.124-1.974-5.124-5.376s2.184-5.376 5.11-5.376c2.394 0 4.34 1.358 4.76 3.71l-1.33.21c-.266-1.736-1.624-2.772-3.444-2.772-2.226 0-3.794 1.456-3.794 4.228s1.596 4.228 3.794 4.228c1.904 0 3.276-1.008 3.486-3.178h-3.444v-1.134h4.816zm6.248.966v4.354h-1.274V111.3l-3.976-6.118h1.484l3.136 4.858 3.108-4.858h1.484l-3.962 6.118zm-29.828 99.742c2.058 0 3.528 1.064 3.613 2.912l-1.302.084c-.07-1.176-.966-1.876-2.282-1.876-1.498 0-2.269.798-2.269 1.82 0 1.246.98 1.512 2.548 1.876 2.254.532 3.612 1.078 3.612 2.912 0 2.1-1.679 3.024-3.724 3.024-2.198 0-3.878-1.092-3.975-3.052l1.288-.07c.098 1.232 1.231 2.002 2.687 2.002 1.386 0 2.422-.56 2.422-1.834 0-1.246-1.036-1.54-2.772-1.946-1.876-.448-3.388-.896-3.388-2.884 0-1.596 1.162-2.968 3.542-2.968zm12.366 1.274h-5.194v3.374h4.578v1.106h-4.578v3.724h5.194v1.134h-6.482v-10.472h6.482v1.134zm3.105 8.204h5.25v1.134H617.9v-10.472h1.288v9.338zm13.465-8.204h-5.194v3.374h4.578v1.106h-4.578v3.724h5.194v1.134h-6.482v-10.472h6.482v1.134zm6.479-1.274c2.464 0 4.452 1.47 4.774 3.878l-1.33.126c-.266-1.82-1.666-2.856-3.486-2.856-2.226 0-3.794 1.568-3.794 4.228 0 2.744 1.666 4.228 3.822 4.228 1.792 0 3.15-.966 3.472-2.702l1.33.112c-.392 2.324-2.296 3.738-4.76 3.738-2.94 0-5.166-1.974-5.166-5.376s2.184-5.376 5.138-5.376zm14.695 1.274h-3.892v9.338h-1.288v-9.338h-3.892v-1.134h9.072v1.134zm2.781 9.338h-1.288v-10.472h1.288v10.472zm9.079-3.094v-7.378h1.274v10.626l-6.552-7.518v7.364h-1.288v-10.626l6.566 7.532zm13.288-2.226v.434c0 3.122-1.89 5.026-4.83 5.026-2.912 0-5.124-1.974-5.124-5.376s2.184-5.376 5.11-5.376c2.394 0 4.34 1.358 4.76 3.71l-1.33.21c-.266-1.736-1.624-2.772-3.444-2.772-2.226 0-3.794 1.456-3.794 4.228s1.596 4.228 3.794 4.228c1.904 0 3.276-1.008 3.486-3.178h-3.444v-1.134h4.816zm-72.608 11.708c2.464 0 4.452 1.47 4.774 3.878l-1.33.126c-.266-1.82-1.666-2.856-3.486-2.856-2.226 0-3.794 1.568-3.794 4.228 0 2.744 1.666 4.228 3.822 4.228 1.792 0 3.15-.966 3.472-2.702l1.33.112c-.392 2.324-2.296 3.738-4.76 3.738-2.94 0-5.166-1.974-5.166-5.376s2.184-5.376 5.138-5.376zm13.015 10.612l-2.352-4.2h-2.73v4.2h-1.288v-10.472h4.046c1.806 0 3.22 1.05 3.22 3.136 0 1.54-.77 2.52-1.918 2.926l2.464 4.41h-1.442zm-5.096-5.334h2.618c1.106 0 2.058-.63 2.058-2.002 0-1.372-.952-2.002-2.058-2.002h-2.618v4.004zm14.806-4.004h-5.194v3.374h4.578v1.106h-4.578v3.724h5.194v1.134h-6.482v-10.472h6.482v1.134zm10.693 9.338h-1.4l-1.078-2.366h-4.9l-1.078 2.366h-1.4L634.857 228l4.928 10.654zm-6.832-3.5h3.822l-1.918-4.2-1.904 4.2zm14.551-5.838h-3.892v9.338h-1.288v-9.338h-3.892v-1.134h9.072v1.134zm6.089-1.274c2.968 0 5.264 2.044 5.264 5.376 0 3.332-2.296 5.376-5.264 5.376-2.982 0-5.278-2.044-5.278-5.376 0-3.332 2.296-5.376 5.278-5.376zm0 1.148c-2.24 0-3.976 1.554-3.976 4.228 0 2.66 1.736 4.228 3.976 4.228s3.962-1.568 3.962-4.228c0-2.674-1.722-4.228-3.962-4.228zm13.695 9.464l-2.352-4.2h-2.73v4.2h-1.288v-10.472h4.046c1.806 0 3.22 1.05 3.22 3.136 0 1.54-.77 2.52-1.918 2.926l2.464 4.41h-1.442zm-5.096-5.334h2.618c1.106 0 2.058-.63 2.058-2.002 0-1.372-.952-2.002-2.058-2.002h-2.618v4.004zm11.628-5.278c2.058 0 3.528 1.064 3.612 2.912l-1.302.084c-.07-1.176-.966-1.876-2.282-1.876-1.498 0-2.268.798-2.268 1.82 0 1.246.98 1.512 2.548 1.876 2.254.532 3.612 1.078 3.612 2.912 0 2.1-1.68 3.024-3.724 3.024-2.198 0-3.878-1.092-3.976-3.052l1.288-.07c.098 1.232 1.232 2.002 2.688 2.002 1.386 0 2.422-.56 2.422-1.834 0-1.246-1.036-1.54-2.772-1.946-1.876-.448-3.388-.896-3.388-2.884 0-1.596 1.162-2.968 3.542-2.968zm-90.652 133c2.058 0 3.528 1.064 3.612 2.912l-1.302.084c-.07-1.176-.966-1.876-2.282-1.876-1.498 0-2.268.798-2.268 1.82 0 1.246.98 1.512 2.548 1.876 2.254.532 3.612 1.078 3.612 2.912 0 2.1-1.68 3.024-3.724 3.024-2.198 0-3.878-1.092-3.976-3.052l1.288-.07c.098 1.232 1.232 2.002 2.688 2.002 1.386 0 2.422-.56 2.422-1.834 0-1.246-1.036-1.54-2.772-1.946-1.876-.448-3.388-.896-3.388-2.884 0-1.596 1.162-2.968 3.542-2.968zm14.76 10.612h-1.4l-1.078-2.366h-4.9l-1.078 2.366h-1.4L593 361l4.928 10.654zm-6.832-3.5h3.822l-1.918-4.2-1.904 4.2zm19.448 3.5h-1.274v-6.566l-4.256 6.622-4.256-6.622v6.566h-1.288v-10.626l5.544 8.456 5.53-8.456v10.626zm2.516-10.472h4.102c1.82 0 3.22 1.078 3.22 3.178 0 2.086-1.4 3.164-3.22 3.164h-2.814v4.13h-1.288v-10.472zm1.274 1.134v4.074h2.674c1.12 0 2.058-.658 2.058-2.03 0-1.4-.938-2.044-2.058-2.044h-2.674zm9.105 8.204h5.25v1.134h-6.538v-10.472h1.288v9.338zm8.272 1.134h-1.288v-10.472h1.288v10.472zm9.079-3.094v-7.378h1.274v10.626l-6.552-7.518v7.364h-1.288v-10.626l6.566 7.532zm13.289-2.226v.434c0 3.122-1.89 5.026-4.83 5.026-2.912 0-5.124-1.974-5.124-5.376s2.184-5.376 5.11-5.376c2.394 0 4.34 1.358 4.76 3.71l-1.33.21c-.266-1.736-1.624-2.772-3.444-2.772-2.226 0-3.794 1.456-3.794 4.228s1.596 4.228 3.794 4.228c1.904 0 3.276-1.008 3.486-3.178h-3.444v-1.134h4.816zm-77.462 11.848h4.102c1.82 0 3.22 1.078 3.22 3.178 0 2.086-1.4 3.164-3.22 3.164h-2.814v4.13h-1.288v-10.472zm1.274 1.134v4.074h2.674c1.12 0 2.058-.658 2.058-2.03 0-1.4-.938-2.044-2.058-2.044h-2.674zm14.188 9.338l-2.352-4.2h-2.73v4.2h-1.288v-10.472h4.046c1.806 0 3.22 1.05 3.22 3.136 0 1.54-.77 2.52-1.918 2.926l2.464 4.41h-1.442zm-5.096-5.334h2.618c1.106 0 2.058-.63 2.058-2.002 0-1.372-.952-2.002-2.058-2.002h-2.618v4.004zm13.126-5.278c2.968 0 5.264 2.044 5.264 5.376 0 3.332-2.296 5.376-5.264 5.376-2.982 0-5.278-2.044-5.278-5.376 0-3.332 2.296-5.376 5.278-5.376zm0 1.148c-2.24 0-3.976 1.554-3.976 4.228 0 2.66 1.736 4.228 3.976 4.228s3.962-1.568 3.962-4.228c0-2.674-1.722-4.228-3.962-4.228zm7.325-1.008h4.088c2.884 0 5.04 1.918 5.04 5.236 0 3.318-2.198 5.236-5.068 5.236h-4.06v-10.472zm1.274 1.092v8.288h2.8c2.184 0 3.78-1.442 3.78-4.144s-1.554-4.144-3.752-4.144h-2.828zm18.169-1.092v6.538c0 2.632-1.638 4.074-4.172 4.074-2.548 0-4.172-1.442-4.172-4.074v-6.538h1.274v6.524c0 1.946 1.092 2.94 2.898 2.94 1.778 0 2.898-.994 2.898-2.94v-6.524h1.274zm7.094-.14c2.464 0 4.452 1.47 4.774 3.878l-1.33.126c-.266-1.82-1.666-2.856-3.486-2.856-2.226 0-3.794 1.568-3.794 4.228 0 2.744 1.666 4.228 3.822 4.228 1.792 0 3.15-.966 3.472-2.702l1.33.112c-.392 2.324-2.296 3.738-4.76 3.738-2.94 0-5.166-1.974-5.166-5.376s2.184-5.376 5.138-5.376zm14.694 1.274h-3.892v9.338h-1.288v-9.338h-3.892v-1.134h9.072v1.134zm4.797-1.274c2.058 0 3.528 1.064 3.612 2.912l-1.302.084c-.07-1.176-.966-1.876-2.282-1.876-1.498 0-2.268.798-2.268 1.82 0 1.246.98 1.512 2.548 1.876 2.254.532 3.612 1.078 3.612 2.912 0 2.1-1.68 3.024-3.724 3.024-2.198 0-3.878-1.092-3.976-3.052l1.288-.07c.098 1.232 1.232 2.002 2.688 2.002 1.386 0 2.422-.56 2.422-1.834 0-1.246-1.036-1.54-2.772-1.946-1.876-.448-3.388-.896-3.388-2.884 0-1.596 1.162-2.968 3.542-2.968zm-216.457 107c2.464 0 4.452 1.47 4.774 3.878l-1.33.126c-.266-1.82-1.666-2.856-3.486-2.856-2.226 0-3.794 1.568-3.794 4.228 0 2.744 1.666 4.228 3.822 4.228 1.792 0 3.15-.966 3.472-2.702l1.33.112c-.392 2.324-2.296 3.738-4.76 3.738-2.94 0-5.166-1.974-5.166-5.376s2.184-5.376 5.138-5.376zm13.014 10.612l-2.352-4.2h-2.73v4.2h-1.288v-10.472h4.046c1.806 0 3.22 1.05 3.22 3.136 0 1.54-.77 2.52-1.918 2.926l2.464 4.41h-1.442zm-5.096-5.334h2.618c1.106 0 2.058-.63 2.058-2.002 0-1.372-.952-2.002-2.058-2.002h-2.618v4.004zm17.2 5.334h-1.4l-1.078-2.366h-4.9l-1.078 2.366h-1.4L457.195 485l4.928 10.654zm-6.832-3.5h3.822l-1.918-4.2-1.904 4.2zm14.856-5.838h-5.194v3.43h4.326v1.134h-4.326v4.774h-1.288v-10.472h6.482v1.134zm10.004 0h-3.892v9.338h-1.288v-9.338h-3.892v-1.134h9.072v1.134zm2.781 9.338h-1.288v-10.472h1.288v10.472zm9.078-3.094v-7.378h1.274v10.626l-6.552-7.518v7.364h-1.288v-10.626l6.566 7.532zm13.289-2.226v.434c0 3.122-1.89 5.026-4.83 5.026-2.912 0-5.124-1.974-5.124-5.376s2.184-5.376 5.11-5.376c2.394 0 4.34 1.358 4.76 3.71l-1.33.21c-.266-1.736-1.624-2.772-3.444-2.772-2.226 0-3.794 1.456-3.794 4.228s1.596 4.228 3.794 4.228c1.904 0 3.276-1.008 3.486-3.178h-3.444v-1.134h4.816zm11.838-4.018h-5.194v3.43h4.326v1.134h-4.326v4.774h-1.288v-10.472h6.482v1.134zm2.968 9.338h-1.288v-10.472h1.288v10.472zm8.883 0l-2.352-4.2h-2.73v4.2h-1.288v-10.472h4.046c1.806 0 3.22 1.05 3.22 3.136 0 1.54-.77 2.52-1.918 2.926l2.464 4.41h-1.442zm-5.096-5.334h2.618c1.106 0 2.058-.63 2.058-2.002 0-1.372-.952-2.002-2.058-2.002h-2.618v4.004zm11.628-5.278c2.058 0 3.528 1.064 3.612 2.912l-1.302.084c-.07-1.176-.966-1.876-2.282-1.876-1.498 0-2.268.798-2.268 1.82 0 1.246.98 1.512 2.548 1.876 2.254.532 3.612 1.078 3.612 2.912 0 2.1-1.68 3.024-3.724 3.024-2.198 0-3.878-1.092-3.976-3.052l1.288-.07c.098 1.232 1.232 2.002 2.688 2.002 1.386 0 2.422-.56 2.422-1.834 0-1.246-1.036-1.54-2.772-1.946-1.876-.448-3.388-.896-3.388-2.884 0-1.596 1.162-2.968 3.542-2.968zm13.933 1.274h-3.892v9.338h-1.288v-9.338h-3.892v-1.134h9.072v1.134zm-126.66 15.866h4.088c2.884 0 5.04 1.918 5.04 5.236 0 3.318-2.198 5.236-5.068 5.236h-4.06v-10.472zm1.274 1.092v8.288h2.8c2.184 0 3.78-1.442 3.78-4.144s-1.554-4.144-3.752-4.144h-2.828zm16.28 9.38l-2.352-4.2h-2.73v4.2h-1.288v-10.472h4.046c1.806 0 3.22 1.05 3.22 3.136 0 1.54-.77 2.52-1.918 2.926l2.464 4.41h-1.442zm-5.096-5.334h2.618c1.106 0 2.058-.63 2.058-2.002 0-1.372-.952-2.002-2.058-2.002h-2.618v4.004zm17.199 5.334h-1.4l-1.078-2.366h-4.9l-1.078 2.366h-1.4L447.522 502l4.928 10.654zm-6.832-3.5h3.822l-1.918-4.2-1.904 4.2zm14.856-5.838h-5.194v3.43h4.326v1.134h-4.326v4.774h-1.288v-10.472h6.482v1.134zm10.004 0h-3.892v9.338h-1.288v-9.338h-3.892v-1.134h9.072v1.134zm4.797-1.274c2.058 0 3.528 1.064 3.612 2.912l-1.302.084c-.07-1.176-.966-1.876-2.282-1.876-1.498 0-2.268.798-2.268 1.82 0 1.246.98 1.512 2.548 1.876 2.254.532 3.612 1.078 3.612 2.912 0 2.1-1.68 3.024-3.724 3.024-2.198 0-3.878-1.092-3.976-3.052l1.288-.07c.098 1.232 1.232 2.002 2.688 2.002 1.386 0 2.422-.56 2.422-1.834 0-1.246-1.036-1.54-2.772-1.946-1.876-.448-3.388-.896-3.388-2.884 0-1.596 1.162-2.968 3.542-2.968zm18.571 7.546l2.898-7.406h1.4l-4.27 10.64-2.996-7.56-2.982 7.56-4.284-10.64h1.4l2.898 7.406 2.968-7.546 2.968 7.546zm7.221 3.066h-1.288v-10.472h1.288v10.472zm10.563-9.338h-3.892v9.338h-1.288v-9.338h-3.892v-1.134h9.072v1.134zm9.515 9.338h-1.274v-4.858h-5.46v4.858h-1.288v-10.472h1.288v4.466h5.46v-4.466h1.274v10.472zm14.115-10.472v6.538c0 2.632-1.638 4.074-4.172 4.074-2.548 0-4.172-1.442-4.172-4.074v-6.538h1.274v6.524c0 1.946 1.092 2.94 2.898 2.94 1.778 0 2.898-.994 2.898-2.94v-6.524h1.274zm11.909 5.152v.434c0 3.122-1.89 5.026-4.83 5.026-2.912 0-5.124-1.974-5.124-5.376s2.184-5.376 5.11-5.376c2.394 0 4.34 1.358 4.76 3.71l-1.33.21c-.266-1.736-1.624-2.772-3.444-2.772-2.226 0-3.794 1.456-3.794 4.228s1.596 4.228 3.794 4.228c1.904 0 3.276-1.008 3.486-3.178h-3.444v-1.134h4.816zm6.682-5.292c2.464 0 4.452 1.47 4.774 3.878l-1.33.126c-.266-1.82-1.666-2.856-3.486-2.856-2.226 0-3.794 1.568-3.794 4.228 0 2.744 1.666 4.228 3.822 4.228 1.792 0 3.15-.966 3.472-2.702l1.33.112c-.392 2.324-2.296 3.738-4.76 3.738-2.94 0-5.166-1.974-5.166-5.376s2.184-5.376 5.138-5.376zm-306.685-15.726h-5.194v3.43h4.326v1.134h-4.326v4.774h-1.288v-10.472h6.482v1.134zm8.162 0h-5.194v3.374h4.578v1.106h-4.578v3.724h5.194v1.134h-6.482v-10.472h6.482v1.134zm8.299 0h-5.194v3.374h4.578v1.106h-4.578v3.724h5.194v1.134h-6.482v-10.472h6.482v1.134zm1.816-1.134h4.088c2.884 0 5.04 1.918 5.04 5.236 0 3.318-2.198 5.236-5.068 5.236h-4.06v-10.472zm1.274 1.092v8.288h2.8c2.184 0 3.78-1.442 3.78-4.144s-1.554-4.144-3.752-4.144h-2.828zm9.91-1.092h3.92c1.792 0 3.122.924 3.122 2.786 0 1.162-.518 1.89-1.19 2.226.868.294 1.638 1.134 1.638 2.562 0 1.96-1.4 2.898-3.206 2.898h-4.284v-10.472zm1.274 1.134v3.416h2.842c.938 0 1.624-.462 1.624-1.68 0-1.162-.812-1.736-1.974-1.736h-2.492zm0 4.522v3.682h2.856c1.12 0 2.058-.518 2.058-1.834 0-1.344-.952-1.848-1.946-1.848h-2.968zm16.94 4.816h-1.4l-1.078-2.366h-4.9l-1.078 2.366h-1.4L289.913 485l4.928 10.654zm-6.832-3.5h3.822l-1.918-4.2-1.904 4.2zm12.557-7.112c2.464 0 4.452 1.47 4.774 3.878l-1.33.126c-.266-1.82-1.666-2.856-3.486-2.856-2.226 0-3.794 1.568-3.794 4.228 0 2.744 1.666 4.228 3.822 4.228 1.792 0 3.15-.966 3.472-2.702l1.33.112c-.392 2.324-2.296 3.738-4.76 3.738-2.94 0-5.166-1.974-5.166-5.376s2.184-5.376 5.138-5.376zm10.047 4.592l4.578 6.02h-1.568l-3.864-5.012-1.26 1.414v3.598h-1.288v-10.472h1.288v4.97l4.466-4.97h1.652l-4.004 4.452zm-55.694 21.886h5.25v1.134h-6.538v-10.472h1.288v9.338zm11.061-9.478c2.968 0 5.264 2.044 5.264 5.376 0 3.332-2.296 5.376-5.264 5.376-2.982 0-5.278-2.044-5.278-5.376 0-3.332 2.296-5.376 5.278-5.376zm0 1.148c-2.24 0-3.976 1.554-3.976 4.228 0 2.66 1.736 4.228 3.976 4.228s3.962-1.568 3.962-4.228c0-2.674-1.722-4.228-3.962-4.228zm12.127-1.148c2.968 0 5.264 2.044 5.264 5.376 0 3.332-2.296 5.376-5.264 5.376-2.982 0-5.278-2.044-5.278-5.376 0-3.332 2.296-5.376 5.278-5.376zm0 1.148c-2.24 0-3.976 1.554-3.976 4.228 0 2.66 1.736 4.228 3.976 4.228s3.962-1.568 3.962-4.228c0-2.674-1.722-4.228-3.962-4.228zm7.325-1.008h4.102c1.82 0 3.22 1.078 3.22 3.178 0 2.086-1.4 3.164-3.22 3.164h-2.814v4.13h-1.288v-10.472zm1.274 1.134v4.074h2.674c1.12 0 2.058-.658 2.058-2.03 0-1.4-.938-2.044-2.058-2.044h-2.674zm11.121-1.274c2.058 0 3.528 1.064 3.612 2.912l-1.302.084c-.07-1.176-.966-1.876-2.282-1.876-1.498 0-2.268.798-2.268 1.82 0 1.246.98 1.512 2.548 1.876 2.254.532 3.612 1.078 3.612 2.912 0 2.1-1.68 3.024-3.724 3.024-2.198 0-3.878-1.092-3.976-3.052l1.288-.07c.098 1.232 1.232 2.002 2.688 2.002 1.386 0 2.422-.56 2.422-1.834 0-1.246-1.036-1.54-2.772-1.946-1.876-.448-3.388-.896-3.388-2.884 0-1.596 1.162-2.968 3.542-2.968zM54.896 361.182h4.102c1.82 0 3.22 1.078 3.22 3.178 0 2.086-1.4 3.164-3.22 3.164h-2.814v4.13h-1.288v-10.472zm1.274 1.134v4.074h2.674c1.12 0 2.058-.658 2.058-2.03 0-1.4-.938-2.044-2.058-2.044H56.17zm14.188 9.338l-2.352-4.2h-2.73v4.2h-1.288v-10.472h4.046c1.806 0 3.22 1.05 3.22 3.136 0 1.54-.77 2.52-1.918 2.926l2.464 4.41h-1.442zm-5.096-5.334h2.618c1.106 0 2.058-.63 2.058-2.002 0-1.372-.952-2.002-2.058-2.002h-2.618v4.004zm13.125-5.278c2.968 0 5.264 2.044 5.264 5.376 0 3.332-2.296 5.376-5.264 5.376-2.982 0-5.278-2.044-5.278-5.376 0-3.332 2.296-5.376 5.278-5.376zm0 1.148c-2.24 0-3.976 1.554-3.976 4.228 0 2.66 1.736 4.228 3.976 4.228s3.962-1.568 3.962-4.228c0-2.674-1.722-4.228-3.962-4.228zm7.325-1.008H89.8c2.884 0 5.04 1.918 5.04 5.236 0 3.318-2.198 5.236-5.068 5.236h-4.06v-10.472zm1.274 1.092v8.288h2.8c2.184 0 3.78-1.442 3.78-4.144s-1.554-4.144-3.752-4.144h-2.828zm18.17-1.092v6.538c0 2.632-1.638 4.074-4.172 4.074-2.548 0-4.172-1.442-4.172-4.074v-6.538h1.274v6.524c0 1.946 1.092 2.94 2.898 2.94 1.778 0 2.898-.994 2.898-2.94v-6.524h1.274zm7.093-.14c2.464 0 4.452 1.47 4.774 3.878l-1.33.126c-.266-1.82-1.666-2.856-3.486-2.856-2.226 0-3.794 1.568-3.794 4.228 0 2.744 1.666 4.228 3.822 4.228 1.792 0 3.15-.966 3.472-2.702l1.33.112c-.392 2.324-2.296 3.738-4.76 3.738-2.94 0-5.166-1.974-5.166-5.376s2.184-5.376 5.138-5.376zm14.695 1.274h-3.892v9.338h-1.288v-9.338h-3.892v-1.134h9.072v1.134zm2.781 9.338h-1.288v-10.472h1.288v10.472zm7.315-10.612c2.968 0 5.264 2.044 5.264 5.376 0 3.332-2.296 5.376-5.264 5.376-2.982 0-5.278-2.044-5.278-5.376 0-3.332 2.296-5.376 5.278-5.376zm0 1.148c-2.24 0-3.976 1.554-3.976 4.228 0 2.66 1.736 4.228 3.976 4.228s3.962-1.568 3.962-4.228c0-2.674-1.722-4.228-3.962-4.228zm13.891 6.37v-7.378h1.274v10.626l-6.552-7.518v7.364h-1.288v-10.626l6.566 7.532zm-93.079 9.482c2.968 0 5.264 2.044 5.264 5.376 0 3.332-2.296 5.376-5.264 5.376-2.982 0-5.278-2.044-5.278-5.376 0-3.332 2.296-5.376 5.278-5.376zm0 1.148c-2.24 0-3.976 1.554-3.976 4.228 0 2.66 1.736 4.228 3.976 4.228s3.962-1.568 3.962-4.228c0-2.674-1.722-4.228-3.962-4.228zm13.808.126h-5.195v3.43h4.326v1.134h-4.326v4.774h-1.288v-10.472h6.482v1.134zm8.921 9.506l-4.928-10.64h1.428l3.5 7.728 3.514-7.728h1.428l-4.942 10.64zm7.759-.168h-1.288v-10.472h1.288v10.472zm2.513-10.472h4.088c2.884 0 5.04 1.918 5.04 5.236 0 3.318-2.198 5.236-5.068 5.236h-4.06v-10.472zm1.274 1.092v8.288h2.8c2.184 0 3.78-1.442 3.78-4.144s-1.554-4.144-3.752-4.144h-2.828zm16.392.042h-5.194v3.374h4.578v1.106h-4.578v3.724h5.194v1.134h-6.482v-10.472h6.482v1.134zm6.618-1.274c2.968 0 5.264 2.044 5.264 5.376 0 3.332-2.296 5.376-5.264 5.376-2.982 0-5.278-2.044-5.278-5.376 0-3.332 2.296-5.376 5.278-5.376zm0 1.148c-2.24 0-3.976 1.554-3.976 4.228 0 2.66 1.736 4.228 3.976 4.228s3.962-1.568 3.962-4.228c0-2.674-1.722-4.228-3.962-4.228zm19.537 9.464h-1.4l-1.078-2.366h-4.9l-1.078 2.366h-1.4L129.746 378l4.928 10.654zm-6.832-3.5h3.822l-1.918-4.2-1.904 4.2zm8.374-6.972h4.088c2.884 0 5.04 1.918 5.04 5.236 0 3.318-2.198 5.236-5.068 5.236h-4.06v-10.472zm1.274 1.092v8.288h2.8c2.184 0 3.78-1.442 3.78-4.144s-1.554-4.144-3.752-4.144h-2.828zm13.214-1.232c2.058 0 3.528 1.064 3.612 2.912l-1.302.084c-.07-1.176-.966-1.876-2.282-1.876-1.498 0-2.268.798-2.268 1.82 0 1.246.98 1.512 2.548 1.876 2.254.532 3.612 1.078 3.612 2.912 0 2.1-1.68 3.024-3.724 3.024-2.198 0-3.878-1.092-3.976-3.052l1.288-.07c.098 1.232 1.232 2.002 2.688 2.002 1.386 0 2.422-.56 2.422-1.834 0-1.246-1.036-1.54-2.772-1.946-1.876-.448-3.388-.896-3.388-2.884 0-1.596 1.162-2.968 3.542-2.968zM22.482 212.316h-5.194v3.43h4.326v1.134h-4.326v4.774H16v-10.472h6.482v1.134zm2.968 9.338h-1.288v-10.472h1.288v10.472zm9.079-3.094v-7.378h1.274v10.626l-6.552-7.518v7.364h-1.288v-10.626l6.566 7.532zm12.687 3.094h-1.4l-1.078-2.366h-4.9l-1.078 2.366h-1.4L42.288 211l4.928 10.654zm-6.832-3.5h3.822l-1.918-4.2-1.904 4.2zm9.662 2.366h5.25v1.134h-6.538v-10.472h1.288v9.338zm16.689 1.134l-2.352-4.2h-2.73v4.2h-1.288v-10.472h4.046c1.806 0 3.22 1.05 3.22 3.136 0 1.54-.77 2.52-1.918 2.926l2.464 4.41h-1.442zm-5.096-5.334h2.618c1.106 0 2.058-.63 2.058-2.002 0-1.372-.952-2.002-2.058-2.002H61.64v4.004zm14.806-4.004H71.25v3.374h4.578v1.106H71.25v3.724h5.194v1.134h-6.482v-10.472h6.482v1.134zm5.723 9.506l-4.928-10.64h1.428l3.5 7.728 3.514-7.728h1.428l-4.942 10.64zm7.759-.168h-1.288v-10.472h1.288v10.472zm5.816-10.612c2.059 0 3.529 1.064 3.613 2.912l-1.302.084c-.07-1.176-.966-1.876-2.282-1.876-1.499 0-2.269.798-2.269 1.82 0 1.246.98 1.512 2.549 1.876 2.253.532 3.611 1.078 3.611 2.912 0 2.1-1.68 3.024-3.724 3.024-2.197 0-3.878-1.092-3.976-3.052l1.288-.07c.098 1.232 1.233 2.002 2.688 2.002 1.387 0 2.423-.56 2.423-1.834 0-1.246-1.036-1.54-2.772-1.946-1.877-.448-3.389-.896-3.389-2.884 0-1.596 1.163-2.968 3.543-2.968zm7.172 10.612h-1.288v-10.472h1.288v10.472zm7.315-10.612c2.968 0 5.264 2.044 5.264 5.376 0 3.332-2.296 5.376-5.264 5.376-2.982 0-5.278-2.044-5.278-5.376 0-3.332 2.296-5.376 5.278-5.376zm0 1.148c-2.24 0-3.976 1.554-3.976 4.228 0 2.66 1.736 4.228 3.976 4.228s3.962-1.568 3.962-4.228c0-2.674-1.722-4.228-3.962-4.228zm13.891 6.37v-7.378h1.274v10.626l-6.552-7.518v7.364h-1.288v-10.626l6.566 7.532zm7.115-7.518c2.058 0 3.528 1.064 3.612 2.912l-1.302.084c-.07-1.176-.966-1.876-2.282-1.876-1.498 0-2.268.798-2.268 1.82 0 1.246.98 1.512 2.548 1.876 2.254.532 3.612 1.078 3.612 2.912 0 2.1-1.68 3.024-3.724 3.024-2.198 0-3.878-1.092-3.976-3.052l1.288-.07c.098 1.232 1.232 2.002 2.688 2.002 1.386 0 2.422-.56 2.422-1.834 0-1.246-1.036-1.54-2.772-1.946-1.876-.448-3.388-.896-3.388-2.884 0-1.596 1.162-2.968 3.542-2.968zm-98.218 27.612h-1.4l-1.078-2.366h-4.9l-1.078 2.366h-1.4L28.09 228l4.928 10.654zm-6.832-3.5h3.822l-1.918-4.2-1.904 4.2zm14.94.406v-7.378H42.4v10.626l-6.552-7.518v7.364H34.56v-10.626l6.566 7.532zm3.811-7.378h4.088c2.883 0 5.04 1.918 5.04 5.236 0 3.318-2.198 5.236-5.069 5.236h-4.06v-10.472zm1.274 1.092v8.288h2.8c2.183 0 3.78-1.442 3.78-4.144s-1.554-4.144-3.752-4.144H46.21zm13.245-1.092h4.088c2.884 0 5.04 1.918 5.04 5.236 0 3.318-2.198 5.236-5.068 5.236h-4.06v-10.472zm1.274 1.092v8.288h2.8c2.184 0 3.78-1.442 3.78-4.144s-1.554-4.144-3.752-4.144H60.73zm16.392.042h-5.194v3.374h4.578v1.106h-4.578v3.724h5.194v1.134H70.64v-10.472h6.482v1.134zm3.105 8.204h5.25v1.134h-6.538v-10.472h1.288v9.338zm8.271 1.134H87.21v-10.472h1.288v10.472zm6.419.168l-4.928-10.64h1.428l3.5 7.728 3.514-7.728h1.428l-4.942 10.64zm12.953-9.506h-5.194v3.374h4.578v1.106h-4.578v3.724h5.194v1.134h-6.482v-10.472h6.482v1.134zm8.187 9.338l-2.352-4.2h-2.73v4.2h-1.288v-10.472h4.046c1.806 0 3.22 1.05 3.22 3.136 0 1.54-.77 2.52-1.918 2.926l2.464 4.41h-1.442zm-5.096-5.334h2.618c1.106 0 2.058-.63 2.058-2.002 0-1.372-.952-2.002-2.058-2.002h-2.618v4.004zm12.551.98v4.354h-1.274V234.3l-3.976-6.118h1.484l3.136 4.858 3.108-4.858h1.484l-3.962 6.118zM95.102 88.182h4.102c1.82 0 3.22 1.078 3.22 3.178 0 2.086-1.4 3.164-3.22 3.164H96.39v4.13h-1.288V88.182zm1.274 1.134v4.074h2.674c1.12 0 2.058-.658 2.058-2.03 0-1.4-.938-2.044-2.058-2.044h-2.674zm14.299 0h-5.194v3.374h4.578v1.106h-4.578v3.724h5.194v1.134h-6.482V88.182h6.482v1.134zm8.187 9.338l-2.352-4.2h-2.73v4.2h-1.288V88.182h4.046c1.806 0 3.22 1.05 3.22 3.136 0 1.54-.77 2.52-1.918 2.926l2.464 4.41h-1.442zm-5.096-5.334h2.618c1.106 0 2.058-.63 2.058-2.002 0-1.372-.952-2.002-2.058-2.002h-2.618v4.004zm14.806-4.004h-5.194v3.43h4.326v1.134h-4.326v4.774h-1.288V88.182h6.482v1.134zm6.482-1.274c2.968 0 5.264 2.044 5.264 5.376 0 3.332-2.296 5.376-5.264 5.376-2.982 0-5.278-2.044-5.278-5.376 0-3.332 2.296-5.376 5.278-5.376zm0 1.148c-2.24 0-3.976 1.554-3.976 4.228 0 2.66 1.736 4.228 3.976 4.228s3.962-1.568 3.962-4.228c0-2.674-1.722-4.228-3.962-4.228zm13.695 9.464l-2.352-4.2h-2.73v4.2h-1.288V88.182h4.046c1.806 0 3.22 1.05 3.22 3.136 0 1.54-.77 2.52-1.918 2.926l2.464 4.41h-1.442zm-5.096-5.334h2.618c1.106 0 2.058-.63 2.058-2.002 0-1.372-.952-2.002-2.058-2.002h-2.618v4.004zm19.398 5.334h-1.274v-6.566l-4.256 6.622-4.256-6.622v6.566h-1.288V88.028l5.544 8.456 5.53-8.456v10.626zm11.391 0h-1.4l-1.078-2.366h-4.9l-1.078 2.366h-1.4L169.514 88l4.928 10.654zm-6.832-3.5h3.822l-1.918-4.2-1.904 4.2zm14.94.406v-7.378h1.274v10.626l-6.552-7.518v7.364h-1.288V88.028l6.566 7.532zm8.473-7.518c2.464 0 4.452 1.47 4.774 3.878l-1.33.126c-.266-1.82-1.666-2.856-3.486-2.856-2.226 0-3.794 1.568-3.794 4.228 0 2.744 1.666 4.228 3.822 4.228 1.792 0 3.15-.966 3.472-2.702l1.33.112c-.392 2.324-2.296 3.738-4.76 3.738-2.94 0-5.166-1.974-5.166-5.376s2.184-5.376 5.138-5.376zm13.127 1.274h-5.194v3.374h4.578v1.106h-4.578v3.724h5.194v1.134h-6.482V88.182h6.482v1.134zm-79.268 26.338h-1.4l-1.078-2.366h-4.9l-1.078 2.366h-1.4L119.954 105l4.928 10.654zm-6.832-3.5h3.822l-1.918-4.2-1.904 4.2zm14.94.406v-7.378h1.274v10.626l-6.552-7.518v7.364h-1.288v-10.626l6.566 7.532zm12.687 3.094h-1.4l-1.078-2.366h-4.9l-1.078 2.366h-1.4L140.749 105l4.928 10.654zm-6.832-3.5h3.822l-1.918-4.2-1.904 4.2zm9.662 2.366h5.25v1.134h-6.538v-10.472h1.288v9.338zm8.914-3.22v4.354h-1.274V111.3l-3.976-6.118h1.484l3.136 4.858 3.108-4.858h1.484l-3.962 6.118zm8.77-6.258c2.058 0 3.528 1.064 3.612 2.912l-1.302.084c-.07-1.176-.966-1.876-2.282-1.876-1.498 0-2.268.798-2.268 1.82 0 1.246.98 1.512 2.548 1.876 2.254.532 3.612 1.078 3.612 2.912 0 2.1-1.68 3.024-3.724 3.024-2.198 0-3.878-1.092-3.976-3.052l1.288-.07c.098 1.232 1.232 2.002 2.688 2.002 1.386 0 2.422-.56 2.422-1.834 0-1.246-1.036-1.54-2.772-1.946-1.876-.448-3.388-.896-3.388-2.884 0-1.596 1.162-2.968 3.542-2.968zm7.171 10.612h-1.288v-10.472h1.288v10.472zm5.817-10.612c2.058 0 3.528 1.064 3.612 2.912l-1.302.084c-.07-1.176-.966-1.876-2.282-1.876-1.498 0-2.268.798-2.268 1.82 0 1.246.98 1.512 2.548 1.876 2.254.532 3.612 1.078 3.612 2.912 0 2.1-1.68 3.024-3.724 3.024-2.198 0-3.878-1.092-3.976-3.052l1.288-.07c.098 1.232 1.232 2.002 2.688 2.002 1.386 0 2.422-.56 2.422-1.834 0-1.246-1.036-1.54-2.772-1.946-1.876-.448-3.388-.896-3.388-2.884 0-1.596 1.162-2.968 3.542-2.968z" fill="#fff"/><circle cx="216.277" cy="109.23" r="3.699" fill="#fff"/><circle cx="149.699" cy="232.761" r="3.699" fill="#fff"/><circle cx="171.894" cy="365.918" r="3.699" fill="#fff"/><circle cx="283.597" cy="473.183" r="3.699" fill="#fff"/><circle cx="457.433" cy="473.183" r="3.699" fill="#fff"/><circle cx="561.746" cy="375.535" r="3.699" fill="#fff"/><circle cx="377.55" cy="48.699" r="3.699" fill="#fff"/><circle cx="522.699" cy="109.699" r="3.699" fill="#fff"/><circle cx="587.636" cy="225.675" r="3.699" fill="#fff"/></g><defs><linearGradient id="b" x1="494.605" y1="-55.075" x2="10.433" y2="673.217" gradientUnits="userSpaceOnUse"><stop offset=".362" stop-color="#FFEC89"/><stop offset=".859" stop-color="#7A3ACD"/></linearGradient><linearGradient id="c" x1="588.705" y1="279.296" x2="232.882" y2="4.846" gradientUnits="userSpaceOnUse"><stop offset=".286" stop-color="#EA54EE"/><stop offset="1" stop-color="#FFED8A"/></linearGradient><linearGradient id="d" x1="465.015" y1="443.523" x2="651.434" y2="118.399" gradientUnits="userSpaceOnUse"><stop stop-color="#8740E2"/><stop offset="1" stop-color="#EB55EF"/></linearGradient></defs></svg>