<svg width="93" height="32" viewBox="0 0 93 32" fill="none" xmlns="http://www.w3.org/2000/svg"><path d="M35.677 23.722h4.597V9.912h3.009V6.44h-2.908c.036-1.624.377-2.585 2.612-2.585V0c-7.232.051-7.31 4.744-7.232 7.154l-.078 16.568z" fill="#000"/><path fill-rule="evenodd" clip-rule="evenodd" d="M80.76 8.469V6.53h-4.463V32h4.462V21.776c1.636 1.791 3.854 2.326 5.311 2.326 2.523 0 6.93-1.183 6.93-9.287 0-8.104-5.264-8.638-7.776-8.638-1.315 0-3.088.664-4.465 2.292zm3.778 11.644c2.086 0 3.776-2.28 3.776-5.093 0-2.814-1.69-5.094-3.776-5.094-2.085 0-3.776 2.28-3.776 5.094 0 2.813 1.69 5.093 3.776 5.093zM59.82 15.019c0 5.064-3.92 9.169-8.754 9.169-4.835 0-8.754-4.105-8.754-9.169s3.92-9.169 8.754-9.169c4.835 0 8.754 4.105 8.754 9.169zm-8.578 5.434c2.275 0 4.12-2.356 4.12-5.263s-1.845-5.264-4.12-5.264c-2.275 0-4.12 2.357-4.12 5.264s1.845 5.263 4.12 5.263zm13.568-8.385h-4.23s-.302-5.877 7.317-5.91c7.62-.034 7.506 5.15 7.506 5.15v12.243h-4.29v-1.324c-.936.677-3.419 2.039-5.14 2.039h-.216c-1.832.01-5.7.03-5.77-5.11-.073-5.354 6.024-5.877 8.022-5.877 1.998 0 2.759-1.21 2.759-1.943 0-.731-.572-1.728-2.992-1.728s-2.965 2.46-2.965 2.46zm5.975 3.145s.198 5.48-3.28 5.48c-1.778 0-2.881 0-2.881-1.79 0-1.93 1.619-2.228 3.26-2.528 1.13-.207 2.27-.417 2.9-1.162z" fill="#000"/><path d="M19.222 13.832c0 2.297-1.883 4.16-4.206 4.16-2.322 0-4.205-1.863-4.205-4.16 0-2.298 1.883-4.16 4.206-4.16 2.322 0 4.205 1.862 4.205 4.16z" fill="#000"/><path fill-rule="evenodd" clip-rule="evenodd" d="M8.451 4.322s0-3.65 2.749-3.65h7.638c2.749 0 2.749 3.65 2.749 3.65h5.447c1.652 0 3.004 1.337 3.004 2.971v13.414c0 1.634-1.352 2.971-3.004 2.971H3.004C1.352 23.678 0 22.341 0 20.709V7.292c0-1.632 1.352-2.97 3.004-2.97H8.45zm6.567 16.492c-3.896 0-7.059-3.128-7.059-6.983 0-3.854 3.163-6.983 7.06-6.983 3.896 0 7.058 3.129 7.058 6.983 0 3.855-3.162 6.983-7.059 6.983z" fill="#000"/></svg>