<svg width="34" height="20" viewBox="0 0 34 20" fill="none" xmlns="http://www.w3.org/2000/svg"><path fill-rule="evenodd" clip-rule="evenodd" d="M9.947 8.629v3.293h5.514c-.223 1.411-1.667 4.143-5.514 4.143-3.319 0-6.026-2.715-6.026-6.064 0-3.348 2.707-6.065 6.026-6.065 1.89 0 3.153.796 3.875 1.482l2.638-2.51C14.766 1.342 12.572.395 9.947.395 4.573.395.227 4.69.227 10c0 5.31 4.346 9.604 9.72 9.604 5.61 0 9.334-3.897 9.334-9.385 0-.631-.07-1.111-.154-1.591h-9.18zm-.002-.001l23.608 2.744h-4.166v4.116H26.61v-4.116h-4.166V8.628h4.166V4.512h2.777v4.116h4.166v2.744L9.945 8.628z" fill="#fff"/></svg>