<svg width="20" height="24" viewBox="0 0 20 24" fill="none" xmlns="http://www.w3.org/2000/svg"><path fill-rule="evenodd" clip-rule="evenodd" d="M17.619 17.489l-.097-.068h-3.314c-.155 0-.162-.467-.165-.622v-5.714c0-.056.046-.101.102-.101h3.867a.101.101 0 0 0 .102-.101V5.117c0-.055-.046-.1-.102-.1h-3.85a.101.101 0 0 1-.1-.101V.1c0-.055-.046-.1-.103-.1H6.722a1.17 1.17 0 0 0-1.149 1.034c-.345 2.778-1.905 4.125-4.328 4.925l-.27.089-.069.096v4.74c0 .056.046.101.101.101h2.936v6.156C3.943 21.801 7.02 24 13.06 24c2.43 0 5.11-.855 5.906-1.891l.159-.208-1.506-4.412zm.341 4.257c-.759.721-2.585 1.256-4.077 1.281l-.166.001c-4.908 0-5.752-3.7-5.752-5.889V10.1a.101.101 0 0 0-.1-.1H5.047a.101.101 0 0 1-.102-.102l-.024-3.06.065-.092c2.536-.976 3.952-2.595 4.325-5.593.02-.167.16-.17.16-.17h3.49c.055 0 .102.044.102.1V5.9a.1.1 0 0 0 .1.101h3.85a.1.1 0 0 1 .102.1v3.801a.101.101 0 0 1-.102.101H13.15a.098.098 0 0 0-.098.101v6.705c.023 1.438.723 2.167 2.09 2.167.55 0 1.13-.126 1.705-.344a.1.1 0 0 1 .132.061l1.007 2.95-.025.104z" fill="#fff"/></svg>