<svg width="25" height="24" viewBox="0 0 25 24" fill="none" xmlns="http://www.w3.org/2000/svg"><path fill-rule="evenodd" clip-rule="evenodd" d="M12.27 2.162c3.243 0 3.628.012 4.909.07 3.292.148 4.829 1.691 4.979 4.92.058 1.264.07 1.644.07 4.848 0 3.205-.013 3.584-.07 4.85-.151 3.224-1.684 4.77-4.979 4.918-1.281.058-1.664.07-4.909.07-3.243 0-3.627-.012-4.908-.07-3.3-.149-4.829-1.699-4.979-4.92-.058-1.265-.07-1.644-.07-4.849 0-3.204.013-3.583.07-4.849.151-3.227 1.685-4.77 4.98-4.919 1.28-.057 1.664-.069 4.907-.069zm0-2.162C8.973 0 8.56.014 7.265.072 2.853.272.4 2.69.199 7.052.139 8.333.125 8.741.125 12c0 3.259.014 3.668.073 4.948.202 4.358 2.65 6.78 7.065 6.98 1.296.058 1.71.072 5.008.072s3.712-.014 5.008-.072c4.407-.2 6.864-2.618 7.064-6.98.06-1.28.074-1.689.074-4.948 0-3.259-.015-3.667-.073-4.947-.199-4.354-2.649-6.78-7.064-6.98C15.983.014 15.57 0 12.27 0zm-.002 5.838c-3.444 0-6.237 2.759-6.237 6.162s2.793 6.163 6.237 6.163 6.237-2.76 6.237-6.163c0-3.403-2.792-6.162-6.237-6.162zm0 10.162c-2.237 0-4.05-1.79-4.05-4 0-2.209 1.813-4 4.05-4 2.235 0 4.048 1.791 4.048 4 0 2.21-1.813 4-4.049 4zm6.487-11.846a1.45 1.45 0 0 0-1.458 1.44c0 .795.653 1.44 1.458 1.44.805 0 1.457-.645 1.457-1.44 0-.795-.652-1.44-1.457-1.44z" fill="#fff"/></svg>