<svg width="12" height="10" viewBox="0 0 12 10" fill="none" xmlns="http://www.w3.org/2000/svg"><path d="M10.487 2.458c.007.102.007.208.007.31 0 3.167-2.41 6.816-6.816 6.816A6.784 6.784 0 0 1 0 8.51c.194.022.38.03.577.03 1.121 0 2.151-.38 2.973-1.023a2.399 2.399 0 0 1-2.239-1.662c.37.054.702.054 1.081-.044A2.396 2.396 0 0 1 .475 3.459v-.03c.318.18.69.289 1.081.303A2.39 2.39 0 0 1 .489 1.738C.49 1.293.606.883.815.53a6.802 6.802 0 0 0 4.938 2.506C5.413 1.409 6.629.09 8.09.09c.69 0 1.31.288 1.75.756A4.694 4.694 0 0 0 11.36.27a2.39 2.39 0 0 1-1.052 1.318c.482-.05.95-.186 1.38-.372a5.043 5.043 0 0 1-1.201 1.242z" fill="#202B34"/></svg>