<svg width="25" height="20" viewBox="0 0 25 20" fill="none" xmlns="http://www.w3.org/2000/svg"><path fill-rule="evenodd" clip-rule="evenodd" d="M24.76 2.557c-.893.392-1.854.656-2.862.775A4.943 4.943 0 0 0 24.09.608c-.962.564-2.029.974-3.165 1.195A5.004 5.004 0 0 0 17.287.248c-3.218 0-5.582 2.966-4.856 6.045a14.206 14.206 0 0 1-10.27-5.144A4.895 4.895 0 0 0 3.7 7.723a5.009 5.009 0 0 1-2.256-.616c-.054 2.281 1.6 4.415 3.997 4.89a5.054 5.054 0 0 1-2.25.084A4.98 4.98 0 0 0 7.846 15.5 10.108 10.108 0 0 1 .47 17.54a14.233 14.233 0 0 0 7.64 2.212c9.253 0 14.48-7.721 14.165-14.646a10.08 10.08 0 0 0 2.486-2.549z" fill="#fff"/></svg>