<svg width="14" height="14" viewBox="0 0 14 14" fill="none" xmlns="http://www.w3.org/2000/svg"><path fill-rule="evenodd" clip-rule="evenodd" d="M13.95 4.113c-.052-1.122-.308-2.115-1.13-2.933C12.002.362 11.01.105 9.887.05c-1.155-.066-4.619-.066-5.774 0C2.994.101 2 .357 1.18 1.176.358 1.995.105 2.988.05 4.109c-.066 1.156-.066 4.62 0 5.775.052 1.122.308 2.115 1.13 2.933.821.818 1.811 1.075 2.933 1.13 1.155.066 4.619.066 5.774 0 1.122-.052 2.115-.308 2.933-1.13.819-.818 1.075-1.811 1.13-2.933.066-1.155.066-4.616 0-5.771zm-3.219-.016a.837.837 0 1 0 0-1.674.837.837 0 0 0 0 1.674zm-3.735-.69a3.583 3.583 0 0 0-3.589 3.59 3.583 3.583 0 0 0 3.59 3.588 3.583 3.583 0 0 0 3.588-3.589 3.583 3.583 0 0 0-3.589-3.589zm-.002 5.92a2.337 2.337 0 0 1-2.333-2.333 2.335 2.335 0 0 1 2.333-2.333 2.335 2.335 0 0 1 2.333 2.333 2.337 2.337 0 0 1-2.333 2.333zm4.131 3.129a2.363 2.363 0 0 0 1.33-1.33c.314-.788.297-2.511.285-3.628L12.737 7l.003-.498c.012-1.116.03-2.837-.284-3.627a2.362 2.362 0 0 0-1.33-1.33c-.79-.313-2.522-.296-3.638-.285l-.489.003c-.144 0-.313-.002-.498-.004-1.116-.01-2.837-.028-3.627.285a2.362 2.362 0 0 0-1.33 1.33c-.313.79-.296 2.522-.285 3.638L1.262 7c0 .145-.002.314-.004.5-.01 1.115-.028 2.836.285 3.626a2.362 2.362 0 0 0 1.33 1.33c.79.313 2.522.296 3.638.285L7 12.737l.5.003c1.115.012 2.836.03 3.626-.284z" fill="#272B38"/></svg>