<svg width="66" height="13" viewBox="0 0 66 13" fill="none" xmlns="http://www.w3.org/2000/svg"><g opacity=".7"><path d="M5.723 1l1.285 3.955h4.159L7.802 7.399l1.285 3.955-3.364-2.445-3.364 2.445 1.285-3.955L.28 4.955h4.158L5.723 1z" fill="#fff"/><path d="M5.723 1l1.285 3.955h4.159L7.802 7.399l1.285 3.955-3.364-2.445-3.364 2.445 1.285-3.955L.28 4.955h4.158L5.723 1z" fill="#fff"/><path d="M5.723 1l1.285 3.955h4.159L7.802 7.399l1.285 3.955-3.364-2.445-3.364 2.445 1.285-3.955L.28 4.955h4.158L5.723 1z" fill="#fff"/><path d="M5.723 1l1.285 3.955h4.159L7.802 7.399l1.285 3.955-3.364-2.445-3.364 2.445 1.285-3.955L.28 4.955h4.158L5.723 1zm13.381 0l1.285 3.955h4.159l-3.365 2.444 1.285 3.955-3.364-2.445-3.364 2.445 1.285-3.955-3.364-2.444h4.158L19.104 1z" fill="#fff"/><path d="M19.104 1l1.285 3.955h4.159l-3.365 2.444 1.285 3.955-3.364-2.445-3.364 2.445 1.285-3.955-3.364-2.444h4.158L19.104 1z" fill="#fff"/><path d="M19.104 1l1.285 3.955h4.159l-3.365 2.444 1.285 3.955-3.364-2.445-3.364 2.445 1.285-3.955-3.364-2.444h4.158L19.104 1z" fill="#fff"/><path d="M19.104 1l1.285 3.955h4.159l-3.365 2.444 1.285 3.955-3.364-2.445-3.364 2.445 1.285-3.955-3.364-2.444h4.158L19.104 1zm13.383 0l1.285 3.955h4.158l-3.364 2.444 1.285 3.955-3.364-2.445-3.364 2.445 1.285-3.955-3.364-2.444h4.158L32.487 1z" fill="#fff"/><path d="M32.487 1l1.285 3.955h4.158l-3.364 2.444 1.285 3.955-3.364-2.445-3.364 2.445 1.285-3.955-3.364-2.444h4.158L32.487 1z" fill="#fff"/><path d="M32.487 1l1.285 3.955h4.158l-3.364 2.444 1.285 3.955-3.364-2.445-3.364 2.445 1.285-3.955-3.364-2.444h4.158L32.487 1z" fill="#fff"/><path d="M32.487 1l1.285 3.955h4.158l-3.364 2.444 1.285 3.955-3.364-2.445-3.364 2.445 1.285-3.955-3.364-2.444h4.158L32.487 1zm13.381 0l1.285 3.955h4.158l-3.364 2.444 1.285 3.955-3.364-2.445-3.364 2.445 1.285-3.955-3.364-2.444h4.158L45.868 1z" fill="#fff"/><path d="M45.868 1l1.285 3.955h4.158l-3.364 2.444 1.285 3.955-3.364-2.445-3.364 2.445 1.285-3.955-3.364-2.444h4.158L45.868 1z" fill="#fff"/><path d="M45.868 1l1.285 3.955h4.158l-3.364 2.444 1.285 3.955-3.364-2.445-3.364 2.445 1.285-3.955-3.364-2.444h4.158L45.868 1z" fill="#fff"/><path d="M45.868 1l1.285 3.955h4.158l-3.364 2.444 1.285 3.955-3.364-2.445-3.364 2.445 1.285-3.955-3.364-2.444h4.158L45.868 1zm13.381 0l1.285 3.955h4.158l-3.364 2.444 1.285 3.955-3.364-2.445-3.364 2.445 1.285-3.955-3.364-2.444h4.158L59.249 1z" fill="#fff"/><path d="M59.249 1l1.285 3.955h4.158l-3.364 2.444 1.285 3.955-3.364-2.445-3.364 2.445 1.285-3.955-3.364-2.444h4.158L59.249 1z" fill="#fff"/><path d="M59.249 1l1.285 3.955h4.158l-3.364 2.444 1.285 3.955-3.364-2.445-3.364 2.445 1.285-3.955-3.364-2.444h4.158L59.249 1z" fill="#fff"/><path d="M59.249 1l1.285 3.955h4.158l-3.364 2.444 1.285 3.955-3.364-2.445-3.364 2.445 1.285-3.955-3.364-2.444h4.158L59.249 1z" fill="#fff"/><path d="M60.7 4.971L59.33 1v7.866l3.224 2.452-1.017-3.98 2.951-2.307-3.788-.06z" fill="#0064DF" stroke="#fff"/></g></svg>